<?xml version="1.0" encoding="utf-8"?>
<!-- Generator: Adobe Illustrator 22.0.1, SVG Export Plug-In . SVG Version: 6.00 Build 0)  -->
<svg version="1.1" id="Layer_1" xmlns="http://www.w3.org/2000/svg" xmlns:xlink="http://www.w3.org/1999/xlink" x="0px" y="0px"
	 viewBox="0 0 600 800" style="enable-background:new 0 0 600 800;" xml:space="preserve">
<style type="text/css">
	.st0{fill:#81B0C1;}
	.st1{fill:#BAE2E8;}
</style>
<g>
	<g>
		<path class="st0" d="M301.5,347.8c-18.1-1.1-38.1,4.2-55.3,24.3c-44,51.5,36,189.1,45.9,197.7c3.3,2.9,6.4,4.4,9.4,4.9V347.8z"/>
		<path class="st0" d="M301.5,347.8c18.1-1.1,38.1,4.2,55.3,24.3c44,51.5-36,189.1-45.9,197.7c-3.3,2.9-6.4,4.4-9.4,4.9V347.8z"/>
		<path class="st0" d="M351.1,274.3c0,27.4-22.2,49.6-49.6,49.6c-9.3,0-18-2.6-25.5-7c-14.4-8.7-24.1-24.5-24.1-42.5
			c0-27.4,22.2-49.6,49.6-49.6S351.1,246.9,351.1,274.3z"/>
	</g>
	<g>
		<path class="st1" d="M302.2,347.8c-12.5-0.9-26.4,3.5-38.3,20.1c-30.5,42.7,24.9,156.9,31.8,164c2.3,2.4,4.4,3.7,6.5,4.1V347.8z"
			/>
		<path class="st1" d="M302.2,347.8c12.5-0.9,26.4,3.5,38.3,20.1c30.5,42.7-24.9,156.9-31.8,164c-2.3,2.4-4.4,3.7-6.5,4.1V347.8z"/>
		<path class="st1" d="M335.8,275c0,22.5-14.6,40.7-32.6,40.7c-6.1,0-11.9-2.1-16.8-5.8c-9.5-7.1-15.9-20.1-15.9-34.9
			c0-22.5,14.6-40.7,32.6-40.7S335.8,252.5,335.8,275z"/>
	</g>
</g>
</svg>
