<?xml version="1.0" encoding="utf-8"?>
<!-- Generator: Adobe Illustrator 22.0.1, SVG Export Plug-In . SVG Version: 6.00 Build 0)  -->
<svg version="1.1" id="Layer_1" xmlns="http://www.w3.org/2000/svg" xmlns:xlink="http://www.w3.org/1999/xlink" x="0px" y="0px"
	 viewBox="0 0 600 800" style="enable-background:new 0 0 600 800;" xml:space="preserve">
<style type="text/css">
	.st0{fill:#797B91;}
	.st1{fill:#AAAACE;}
	.st2{fill:#6E7199;}
	.st3{fill:#54475E;}
	.st4{fill:#8C8393;}
	.st5{fill:#AA9DB2;}
	.st6{fill:#CDEDFC;}
	.st7{fill:#574763;}
	.st8{opacity:0.14;}
	.st9{opacity:0.37;}
	.st10{fill:#D3D3D3;}
</style>
<g>
	<g>
		<g>
			<polygon class="st0" points="317.5,558.5 221.2,515.8 221.2,241.1 317.5,283.8 			"/>
			<polygon class="st1" points="317.5,558.5 413.7,515.8 413.7,241.1 317.5,283.8 			"/>
			<polygon class="st2" points="401.9,241 317.5,277.3 233.8,241 317.5,212 			"/>
			<polygon class="st3" points="317.5,207.5 317.5,217.1 399.3,244.6 407.2,239.8 			"/>
			<polygon class="st4" points="317.5,217.1 240.2,244.3 231.3,240.7 317.5,210.7 			"/>
			<path class="st5" d="M317.5,207.5l-96.2,33.7l96.2,42.7l96.2-42.7L317.5,207.5z M233.8,241l83.6-29l84.5,29l-84.5,36.3L233.8,241
				z"/>
			<g>
				<g>
					<polygon class="st6" points="251.3,316.6 233.3,308.8 233.3,260.6 251.3,268.4 					"/>
					<polygon class="st7" points="235.8,309.9 233.2,308.7 233.2,260.6 235.8,261.7 					"/>
					<polygon class="st5" points="251.2,316.6 251.2,313.8 235.8,307.3 233.2,308.7 					"/>
				</g>
				<g>
					<polygon class="st6" points="276.4,327.1 258.3,319.3 258.3,271.1 276.4,278.9 					"/>
					<polygon class="st7" points="260.8,320.4 258.3,319.2 258.3,271.1 260.8,272.2 					"/>
					<polygon class="st5" points="276.3,327.1 276.3,324.3 260.8,317.8 258.3,319.2 					"/>
				</g>
				<g>
					<polygon class="st6" points="301.4,336.7 283.3,328.9 283.3,280.7 301.4,288.6 					"/>
					<polygon class="st7" points="285.8,330 283.2,328.9 283.2,280.7 285.8,281.9 					"/>
					<polygon class="st5" points="301.3,336.7 301.3,333.9 285.8,327.4 283.2,328.9 					"/>
				</g>
			</g>
			<g>
				<g>
					<polygon class="st6" points="251.3,374.1 233.2,366.3 233.2,318.1 251.3,326 					"/>
					<polygon class="st7" points="235.8,367.4 233.2,366.3 233.2,318.1 235.8,319.3 					"/>
					<polygon class="st5" points="251.2,374.1 251.2,371.3 235.8,364.8 233.2,366.3 					"/>
				</g>
				<g>
					<polygon class="st6" points="276.4,384.6 258.3,376.8 258.3,328.6 276.4,336.5 					"/>
					<polygon class="st7" points="260.8,377.9 258.3,376.8 258.3,328.6 260.8,329.7 					"/>
					<polygon class="st5" points="276.3,384.6 276.3,381.8 260.8,375.3 258.3,376.8 					"/>
				</g>
				<g>
					<polygon class="st6" points="301.4,394.3 283.3,386.4 283.3,338.3 301.4,346.1 					"/>
					<polygon class="st7" points="285.8,387.5 283.2,386.4 283.2,338.3 285.8,339.4 					"/>
					<polygon class="st5" points="301.3,394.2 301.3,391.4 285.8,385 283.2,386.4 					"/>
				</g>
			</g>
			<g>
				<g>
					<polygon class="st6" points="251.2,488.8 233.2,480.9 233.2,432.8 251.2,440.6 					"/>
					<polygon class="st7" points="235.8,482.5 233.2,481.3 233.2,433.2 235.8,434.3 					"/>
					<polygon class="st5" points="251.2,489.2 251.2,486.4 235.8,479.9 233.2,481.3 					"/>
				</g>
				<g>
					<polygon class="st6" points="276.3,499.3 258.2,491.4 258.2,443.3 276.3,451.1 					"/>
					<polygon class="st7" points="260.8,493 258.3,491.8 258.3,443.7 260.8,444.8 					"/>
					<polygon class="st5" points="276.3,499.7 276.3,496.9 260.8,490.4 258.3,491.8 					"/>
				</g>
				<g>
					<polygon class="st6" points="301.3,508.9 283.2,501.1 283.2,452.9 301.3,460.7 					"/>
					<polygon class="st7" points="285.8,502.6 283.2,501.5 283.2,453.3 285.8,454.5 					"/>
					<polygon class="st5" points="301.3,509.3 301.3,506.5 285.8,500 283.2,501.5 					"/>
				</g>
			</g>
			<g>
				<g>
					<polygon class="st6" points="251.3,431.7 233.2,423.8 233.2,375.7 251.3,383.5 					"/>
					<polygon class="st7" points="235.8,424.9 233.2,423.8 233.2,375.7 235.8,376.8 					"/>
					<polygon class="st5" points="251.2,431.6 251.2,428.9 235.8,422.4 233.2,423.8 					"/>
				</g>
				<g>
					<polygon class="st6" points="276.3,442.2 258.3,434.3 258.3,386.2 276.3,394 					"/>
					<polygon class="st7" points="260.8,435.4 258.3,434.3 258.3,386.2 260.8,387.3 					"/>
					<polygon class="st5" points="276.3,442.1 276.3,439.3 260.8,432.9 258.3,434.3 					"/>
				</g>
				<g>
					<polygon class="st6" points="301.3,451.8 283.2,444 283.2,395.8 301.3,403.6 					"/>
					<polygon class="st7" points="285.8,445.1 283.2,443.9 283.2,395.8 285.8,396.9 					"/>
					<polygon class="st5" points="301.3,451.8 301.3,449 285.8,442.5 283.2,443.9 					"/>
				</g>
			</g>
			<g>
				<g>
					<polygon class="st6" points="383.8,318.2 401.8,310.4 401.8,262.3 383.8,270.1 					"/>
					<polygon class="st7" points="399.3,311.5 401.9,310.4 401.9,262.2 399.3,263.4 					"/>
					<polygon class="st5" points="383.9,318.2 383.9,315.4 399.3,308.9 401.9,310.4 					"/>
				</g>
				<g>
					<polygon class="st6" points="358.7,328.7 376.8,320.9 376.8,272.8 358.7,280.6 					"/>
					<polygon class="st7" points="374.3,322 376.9,320.9 376.9,272.7 374.3,273.9 					"/>
					<polygon class="st5" points="358.8,328.7 358.8,325.9 374.3,319.4 376.9,320.9 					"/>
				</g>
				<g>
					<polygon class="st6" points="333.8,338.4 351.8,330.5 351.8,282.4 333.8,290.2 					"/>
					<polygon class="st7" points="349.3,331.6 351.9,330.5 351.9,282.4 349.3,283.5 					"/>
					<polygon class="st5" points="333.8,338.3 333.8,335.6 349.3,329.1 351.9,330.5 					"/>
				</g>
			</g>
			<g>
				<g>
					<polygon class="st6" points="383.8,375.8 401.9,367.9 401.9,319.8 383.8,327.6 					"/>
					<polygon class="st7" points="399.3,369.1 401.9,367.9 401.9,319.8 399.3,320.9 					"/>
					<polygon class="st5" points="383.9,375.8 383.9,373 399.3,366.5 401.9,367.9 					"/>
				</g>
				<g>
					<polygon class="st6" points="358.7,386.3 376.8,378.4 376.8,330.3 358.7,338.1 					"/>
					<polygon class="st7" points="374.3,379.5 376.9,378.4 376.9,330.3 374.3,331.4 					"/>
					<polygon class="st5" points="358.8,386.2 358.8,383.5 374.3,377 376.9,378.4 					"/>
				</g>
				<g>
					<polygon class="st6" points="333.8,395.9 351.8,388.1 351.8,339.9 333.8,347.8 					"/>
					<polygon class="st7" points="349.3,389.2 351.9,388.1 351.9,339.9 349.3,341 					"/>
					<polygon class="st5" points="333.8,395.9 333.8,393.1 349.3,386.6 351.9,388.1 					"/>
				</g>
			</g>
			<g>
				<g>
					<polygon class="st6" points="383.9,490.4 401.9,482.6 401.9,434.4 383.9,442.3 					"/>
					<polygon class="st7" points="399.3,484.1 401.9,483 401.9,434.8 399.3,436 					"/>
					<polygon class="st5" points="383.9,490.8 383.9,488 399.3,481.5 401.9,483 					"/>
				</g>
				<g>
					<polygon class="st6" points="358.8,500.9 376.9,493.1 376.9,444.9 358.8,452.8 					"/>
					<polygon class="st7" points="374.3,494.6 376.9,493.5 376.9,445.3 374.3,446.5 					"/>
					<polygon class="st5" points="358.8,501.3 358.8,498.5 374.3,492 376.9,493.5 					"/>
				</g>
				<g>
					<polygon class="st6" points="333.8,510.5 351.9,502.7 351.9,454.6 333.8,462.4 					"/>
					<polygon class="st7" points="349.3,504.2 351.9,503.1 351.9,455 349.3,456.1 					"/>
					<polygon class="st5" points="333.8,510.9 333.8,508.2 349.3,501.7 351.9,503.1 					"/>
				</g>
			</g>
			<g>
				<g>
					<polygon class="st6" points="383.8,433.3 401.9,425.5 401.9,377.3 383.8,385.2 					"/>
					<polygon class="st7" points="399.3,426.6 401.9,425.5 401.9,377.3 399.3,378.4 					"/>
					<polygon class="st5" points="383.9,433.3 383.9,430.5 399.3,424 401.9,425.5 					"/>
				</g>
				<g>
					<polygon class="st6" points="358.8,443.8 376.8,436 376.8,387.8 358.8,395.7 					"/>
					<polygon class="st7" points="374.3,437.1 376.9,436 376.9,387.8 374.3,388.9 					"/>
					<polygon class="st5" points="358.8,443.8 358.8,441 374.3,434.5 376.9,436 					"/>
				</g>
				<g>
					<polygon class="st6" points="333.8,453.4 351.9,445.6 351.9,397.5 333.8,405.3 					"/>
					<polygon class="st7" points="349.3,446.7 351.9,445.6 351.9,397.4 349.3,398.6 					"/>
					<polygon class="st5" points="333.8,453.4 333.8,450.6 349.3,444.1 351.9,445.6 					"/>
				</g>
			</g>
		</g>
		<polygon class="st8" points="221.2,515.8 127.6,515.8 216.8,558.5 317.5,558.5 		"/>
	</g>
	<g id="Layer_x0020_1" class="st9">
		<g id="_152222920">
			<path id="_152222248" class="st10" d="M307.8,241.3c-9.1,1.4,4.8,8.5,14.8,6.9c1.8,0.8,7.5,3.5,9.3,4.4
				c-4.2,0.7-7.8,1.1-12.7,0.3c-13.6-2.1-28.5-9.1-28.1-13.3c0.1-1.5,3.3-2,7.4-2.7C300.3,237.7,306.1,240.4,307.8,241.3
				L307.8,241.3z"/>
			<path id="_150519168" class="st10" d="M311.7,241.1c-1,0.2-2.3,0.1-2.8-0.2l-8.7-4.1c-0.6-0.3-0.2-0.6,0.8-0.8l4.6-0.7
				c1-0.2,2.3-0.1,2.8,0.2l8.7,4.1c0.6,0.3,0.2,0.6-0.8,0.8L311.7,241.1L311.7,241.1z"/>
			<path id="_226148072" class="st10" d="M335.5,252.3c-1,0.2-2.3,0.1-2.8-0.2L324,248c-0.6-0.3-0.2-0.6,0.8-0.8l4.6-0.7
				c1-0.2,2.3-0.1,2.8,0.2l8.7,4.1c0.6,0.3,0.2,0.6-0.8,0.8L335.5,252.3L335.5,252.3z"/>
		</g>
		<path class="st10" d="M316.2,231L316.2,231L316.2,231c13.5,0,25.7,1.5,34.6,3.9c8.8,2.4,14.3,5.7,14.3,9.4h0v0v0h0
			c0,3.7-5.5,7-14.3,9.4c-8.8,2.4-21.1,3.9-34.6,3.9v0h0h0v0c-13.5,0-25.7-1.5-34.6-3.9c-8.8-2.4-14.3-5.7-14.3-9.4h0v0v0h0
			c0-3.7,5.5-7,14.3-9.4C290.4,232.5,302.6,231,316.2,231L316.2,231L316.2,231L316.2,231z M316.2,232.6L316.2,232.6L316.2,232.6
			L316.2,232.6L316.2,232.6c-11.9,0-22.6,1.3-30.4,3.4c-7.8,2.1-12.6,5-12.6,8.2h0v0v0h0c0,3.2,4.8,6.1,12.6,8.2
			c7.8,2.1,18.6,3.4,30.4,3.4v0h0h0v0c11.9,0,22.6-1.3,30.4-3.4c7.8-2.1,12.6-5,12.6-8.2h0v0v0h0c0-3.2-4.8-6.1-12.6-8.2
			C338.8,233.9,328,232.6,316.2,232.6L316.2,232.6z"/>
	</g>
</g>
</svg>
