<?xml version="1.0" encoding="utf-8"?>
<!-- Generator: Adobe Illustrator 22.0.1, SVG Export Plug-In . SVG Version: 6.00 Build 0)  -->
<svg version="1.1" id="Layer_1" xmlns="http://www.w3.org/2000/svg" xmlns:xlink="http://www.w3.org/1999/xlink" x="0px" y="0px"
	 viewBox="0 0 477.3 408.7" style="enable-background:new 0 0 477.3 408.7;" xml:space="preserve">
<style type="text/css">
	.st0{fill:#7F7C73;}
	.st1{fill:#DDC3C3;}
	.st2{fill:#898888;}
	.st3{fill:#49473F;}
	.st4{fill:#918F83;}
	.st5{fill:#ADA29C;}
	.st6{opacity:0.14;}
	.st7{fill:#D6E4E5;}
	.st8{opacity:0.73;fill:#C1ACB0;}
	.st9{fill:#A9AAAA;}
	.st10{fill:#5D6664;}
	.st11{fill:#7C7175;}
	.st12{fill:#F9E4E4;}
	.st13{fill:#8E8286;}
</style>
<g>
	<g>
		<polygon class="st0" points="366,291.4 275.8,243.1 275.8,105.3 366,151.2 		"/>
		<polygon class="st1" points="366,291.4 475.5,225.4 475.5,85.2 366,151.2 		"/>
		<polygon class="st2" points="464.5,85 366,143.8 287.6,105.1 385.3,52.2 		"/>
		<polygon class="st3" points="385.3,47.1 385.3,57.9 458.1,88.4 469.5,83.7 		"/>
		<polygon class="st4" points="385.3,57.9 296.7,109.4 288.3,105.3 385.3,52.2 		"/>
		<path class="st5" d="M385.3,47.1l-109.5,58.2l90.3,45.9l109.5-66L385.3,47.1z M288.7,105.3l96.6-53.1l78.5,32.6l-97.8,59
			L288.7,105.3z"/>
		<polygon class="st6" points="275.8,243.1 204.3,241.3 293.4,291.4 366,291.4 		"/>
	</g>
	<g>
		<g>
			<polygon class="st7" points="378.1,241.6 466.2,188.8 466.6,166.3 377.6,219.5 			"/>
			<polygon class="st3" points="463.6,190.5 466.2,188.8 466.6,166.3 464,167.3 			"/>
			<polygon class="st8" points="378.1,241.6 378,238.4 463.7,187.5 466.2,188.8 			"/>
		</g>
		<polygon class="st9" points="377.8,228.4 456.9,182.4 456.9,183 377.8,229 		"/>
		<polygon class="st9" points="456.4,182.7 464.3,178 464.3,178.7 456.3,183.4 		"/>
		<polygon class="st10" points="463.7,178.1 377.8,228 377.8,228.4 464.3,178 		"/>
		<g>
			<polygon class="st10" points="454.2,194 453.9,193.8 454.1,173.8 454.5,173.6 454.3,183.5 			"/>
			<polygon class="st9" points="455.1,173.2 454.5,173.6 454.2,194 454.8,193.6 			"/>
		</g>
		<g>
			<polygon class="st10" points="443.7,200.4 443.4,200.2 443.5,180.2 443.9,180 443.8,189.8 			"/>
			<polygon class="st9" points="444.5,179.5 443.9,180 443.7,200.4 444.3,199.9 			"/>
		</g>
		<g>
			<polygon class="st10" points="433.4,206.4 433.1,206.2 433.2,186.3 433.5,186.1 433.5,195.9 			"/>
			<polygon class="st9" points="434.1,185.6 433.5,186.1 433.4,206.4 434,206 			"/>
		</g>
		<g>
			<polygon class="st10" points="423,212.8 422.6,212.6 422.6,192.6 422.9,192.4 422.9,202.3 			"/>
			<polygon class="st9" points="423.5,192.1 422.9,192.4 423,212.8 423.6,212.4 			"/>
		</g>
		<g>
			<polygon class="st10" points="412.5,218.9 412.2,218.7 412.1,198.8 412.4,198.6 412.5,208.4 			"/>
			<polygon class="st9" points="413,198.2 412.4,198.6 412.5,218.9 413.2,218.6 			"/>
		</g>
		<g>
			<polygon class="st10" points="401.2,225.8 400.8,225.6 400.6,205.7 400.9,205.5 401,215.3 			"/>
			<polygon class="st9" points="401.5,205.1 400.9,205.5 401.2,225.8 401.8,225.4 			"/>
		</g>
		<g>
			<polygon class="st10" points="390,232.5 389.7,232.3 389.3,212.5 389.6,212.3 389.8,222 			"/>
			<polygon class="st9" points="390.3,211.9 389.6,212.3 390,232.5 390.6,232.2 			"/>
		</g>
	</g>
	<g>
		<g>
			<polygon class="st7" points="378.6,192 465.8,137.2 466.2,115.2 378.1,170.4 			"/>
			<polygon class="st3" points="463.2,139 465.8,137.2 466.2,115.2 463.6,116.3 			"/>
			<polygon class="st8" points="378.6,192 378.5,188.9 463.3,136.1 465.8,137.2 			"/>
		</g>
		<polygon class="st9" points="378.3,179.1 456.5,131.3 456.5,132 378.3,179.6 		"/>
		<polygon class="st9" points="456,131.6 463.9,126.8 463.9,127.4 456,132.3 		"/>
		<polygon class="st10" points="463.3,126.9 378.2,178.7 378.3,179.1 463.9,126.8 		"/>
		<g>
			<polygon class="st10" points="453.9,142.8 453.6,142.6 453.8,123 454.1,122.8 454,132.4 			"/>
			<polygon class="st9" points="454.7,122.4 454.1,122.8 453.9,142.8 454.5,142.4 			"/>
		</g>
		<g>
			<polygon class="st10" points="443.5,149.4 443.2,149.2 443.3,129.6 443.6,129.4 443.6,139.1 			"/>
			<polygon class="st9" points="444.3,129 443.6,129.4 443.5,149.4 444.1,148.9 			"/>
		</g>
		<g>
			<polygon class="st10" points="433.3,155.7 433,155.5 433,136 433.4,135.7 433.3,145.4 			"/>
			<polygon class="st9" points="434,135.3 433.4,135.7 433.3,155.7 433.9,155.2 			"/>
		</g>
		<g>
			<polygon class="st10" points="422.9,162.3 422.6,162.1 422.6,142.6 422.9,142.3 422.9,152 			"/>
			<polygon class="st9" points="423.5,142 422.9,142.3 422.9,162.3 423.6,161.9 			"/>
		</g>
		<g>
			<polygon class="st10" points="412.6,168.6 412.3,168.4 412.2,149 412.5,148.7 412.6,158.4 			"/>
			<polygon class="st9" points="413.1,148.4 412.5,148.7 412.6,168.6 413.2,168.3 			"/>
		</g>
		<g>
			<polygon class="st10" points="401.4,175.7 401,175.6 400.8,156.1 401.1,155.9 401.2,165.5 			"/>
			<polygon class="st9" points="401.7,155.5 401.1,155.9 401.4,175.7 402,175.4 			"/>
		</g>
		<g>
			<polygon class="st10" points="390.3,182.7 390,182.5 389.6,163.1 390,162.9 390.1,172.5 			"/>
			<polygon class="st9" points="390.6,162.5 390,162.9 390.3,182.7 390.9,182.3 			"/>
		</g>
	</g>
	<g>
		<g>
			<polygon class="st11" points="303.7,359.5 183.4,291.1 183.4,63.3 303.7,129.3 			"/>
			<polygon class="st12" points="303.7,359.5 423.2,290.5 423.2,60.3 303.7,129.3 			"/>
			<polygon class="st2" points="412.2,60.1 303.7,121.8 195.2,63.2 302.9,7.2 			"/>
			<polygon class="st3" points="302.9,2.1 302.9,13 405.7,63.5 417.1,58.8 			"/>
			<polygon class="st13" points="302.9,13 204.3,67.4 195.9,63.3 302.9,7.2 			"/>
			<path class="st5" d="M302.9,2.1L183.4,63.3l120.3,65.9l119.5-69L302.9,2.1z M196.3,63.3L302.9,7.2l108.5,52.6l-107.8,62
				L196.3,63.3z"/>
		</g>
	</g>
	<g>
		<g>
			<polygon class="st7" points="313.5,173.1 416.5,112.4 416.5,85.1 313,147.2 			"/>
			<polygon class="st3" points="413.4,114.5 416.5,112.4 416.5,85.1 413.3,86.3 			"/>
			<polygon class="st8" points="313.5,173.1 313.5,169.3 413.4,110.8 416.5,112.4 			"/>
		</g>
		<polygon class="st9" points="313.2,157.5 404.9,104.5 404.9,105.4 313.2,158.2 		"/>
		<polygon class="st9" points="404.3,104.9 413.9,99.2 413.9,100.1 404.3,105.7 		"/>
		<polygon class="st10" points="413.2,99.4 313.2,157.1 313.2,157.5 413.9,99.2 		"/>
		<g>
			<polygon class="st10" points="401.9,118.6 401.5,118.4 401.4,94.2 401.8,93.9 401.8,105.8 			"/>
			<polygon class="st9" points="402.5,93.4 401.8,93.9 401.9,118.6 402.6,118.1 			"/>
		</g>
		<g>
			<polygon class="st10" points="389.2,126.1 388.8,125.9 388.7,101.9 389.1,101.6 389.2,113.4 			"/>
			<polygon class="st9" points="389.8,101.1 389.1,101.6 389.2,126.1 390,125.7 			"/>
		</g>
		<g>
			<polygon class="st10" points="377,133.2 376.6,133 376.4,109.1 376.8,108.9 376.9,120.6 			"/>
			<polygon class="st9" points="377.5,108.4 376.8,108.9 377,133.2 377.7,132.8 			"/>
		</g>
		<g>
			<polygon class="st10" points="364.7,140.6 364.3,140.4 364.1,116.6 364.4,116.3 364.6,128 			"/>
			<polygon class="st9" points="365.2,115.9 364.4,116.3 364.7,140.6 365.4,140.2 			"/>
		</g>
		<g>
			<polygon class="st10" points="352.6,147.6 352.2,147.4 351.9,123.7 352.3,123.5 352.4,135.1 			"/>
			<polygon class="st9" points="353,123.1 352.3,123.5 352.6,147.6 353.3,147.2 			"/>
		</g>
		<g>
			<polygon class="st10" points="339.5,155.4 339.1,155.1 338.8,131.7 339.1,131.4 339.3,143 			"/>
			<polygon class="st9" points="339.8,131 339.1,131.4 339.5,155.4 340.2,155 			"/>
		</g>
		<g>
			<polygon class="st10" points="326.9,162.9 326.5,162.7 326,139.3 326.4,139.1 326.6,150.6 			"/>
			<polygon class="st9" points="327.1,138.7 326.4,139.1 326.9,162.9 327.6,162.5 			"/>
		</g>
	</g>
	<g>
		<polygon class="st11" points="164,407.3 73.8,359 72.8,218.2 164,267.1 		"/>
		<polygon class="st1" points="164,407.3 273.5,341.3 273.5,208.1 164,267.1 		"/>
		<polygon class="st2" points="262.5,207.9 164,259.7 84.6,218 183.3,168.1 		"/>
		<polygon class="st3" points="183.3,163 183.3,173.8 256.1,211.3 267.5,206.6 		"/>
		<polygon class="st13" points="183.3,173.8 93.7,222.3 85.3,218.2 183.3,168.1 		"/>
		<path class="st5" d="M183.3,163L72.8,218.2l91.3,48.9l109.5-59L183.3,163z M85.7,218.2l97.6-50.1l78.5,39.6l-97.8,52L85.7,218.2z"
			/>
		<polygon class="st6" points="73.8,359 2.3,357.2 91.4,407.3 164,407.3 		"/>
	</g>
	<g>
		<g>
			<polygon class="st7" points="314.2,202.4 416.5,143.3 416.5,116.3 313.6,176.9 			"/>
			<polygon class="st3" points="413.4,145.3 416.5,143.3 416.5,116.3 413.4,117.5 			"/>
			<polygon class="st8" points="314.2,202.4 314.1,198.7 413.4,141.7 416.5,143.3 			"/>
		</g>
		<polygon class="st9" points="313.9,187.1 405,135.5 405,136.3 313.9,187.7 		"/>
		<polygon class="st9" points="404.3,135.8 414,130.3 414,131.1 404.3,136.6 		"/>
		<polygon class="st10" points="413.2,130.4 313.8,186.6 313.9,187.1 414,130.3 		"/>
		<g>
			<polygon class="st10" points="402,149.3 401.6,149.1 401.5,125.2 401.9,125 401.9,136.7 			"/>
			<polygon class="st9" points="402.6,124.5 401.9,125 402,149.3 402.7,148.9 			"/>
		</g>
		<g>
			<polygon class="st10" points="389.4,156.7 389,156.4 388.9,132.7 389.3,132.4 389.3,144.1 			"/>
			<polygon class="st9" points="390,131.9 389.3,132.4 389.4,156.7 390.1,156.2 			"/>
		</g>
		<g>
			<polygon class="st10" points="377.3,163.6 376.9,163.3 376.7,139.7 377.1,139.5 377.2,151.1 			"/>
			<polygon class="st9" points="377.8,139 377.1,139.5 377.3,163.6 378,163.1 			"/>
		</g>
		<g>
			<polygon class="st10" points="365,170.8 364.7,170.5 364.4,147 364.8,146.8 364.9,158.3 			"/>
			<polygon class="st9" points="365.5,146.4 364.8,146.8 365,170.8 365.8,170.4 			"/>
		</g>
		<g>
			<polygon class="st10" points="353,177.6 352.6,177.3 352.3,154 352.7,153.8 352.8,165.2 			"/>
			<polygon class="st9" points="353.4,153.4 352.7,153.8 353,177.6 353.7,177.2 			"/>
		</g>
		<g>
			<polygon class="st10" points="340,185.1 339.6,184.9 339.3,161.7 339.6,161.5 339.8,172.9 			"/>
			<polygon class="st9" points="340.3,161.1 339.6,161.5 340,185.1 340.7,184.8 			"/>
		</g>
		<g>
			<polygon class="st10" points="327.4,192.5 327,192.2 326.6,169.2 327,168.9 327.2,180.3 			"/>
			<polygon class="st9" points="327.7,168.5 327,168.9 327.4,192.5 328.1,192.1 			"/>
		</g>
	</g>
	<g>
		<g>
			<polygon class="st7" points="314.1,242.7 417.1,182 417.1,154.7 313.5,216.8 			"/>
			<polygon class="st3" points="413.9,184.1 417.1,182 417.1,154.7 413.9,155.9 			"/>
			<polygon class="st8" points="314.1,242.7 314,238.9 413.9,180.4 417.1,182 			"/>
		</g>
		<polygon class="st9" points="313.8,227.1 405.5,174.1 405.5,174.9 313.8,227.8 		"/>
		<polygon class="st9" points="404.8,174.5 414.5,168.8 414.5,169.7 404.8,175.3 		"/>
		<polygon class="st10" points="413.8,168.9 313.8,226.7 313.8,227.1 414.5,168.8 		"/>
		<g>
			<polygon class="st10" points="402.4,188.2 402,188 402,163.8 402.4,163.5 402.4,175.4 			"/>
			<polygon class="st9" points="403.1,163 402.4,163.5 402.4,188.2 403.2,187.7 			"/>
		</g>
		<g>
			<polygon class="st10" points="389.8,195.7 389.4,195.5 389.3,171.4 389.7,171.2 389.7,183 			"/>
			<polygon class="st9" points="390.4,170.7 389.7,171.2 389.8,195.7 390.5,195.2 			"/>
		</g>
		<g>
			<polygon class="st10" points="377.6,202.8 377.2,202.6 377,178.7 377.4,178.4 377.5,190.2 			"/>
			<polygon class="st9" points="378.1,177.9 377.4,178.4 377.6,202.8 378.3,202.4 			"/>
		</g>
		<g>
			<polygon class="st10" points="365.3,210.2 364.9,210 364.6,186.2 365,185.9 365.1,197.6 			"/>
			<polygon class="st9" points="365.7,185.5 365,185.9 365.3,210.2 366,209.8 			"/>
		</g>
		<g>
			<polygon class="st10" points="353.2,217.2 352.8,217 352.4,193.3 352.8,193.1 353,204.7 			"/>
			<polygon class="st9" points="353.5,192.7 352.8,193.1 353.2,217.2 353.9,216.8 			"/>
		</g>
		<g>
			<polygon class="st10" points="340.1,225 339.7,224.7 339.3,201.2 339.7,201 339.9,212.6 			"/>
			<polygon class="st9" points="340.4,200.6 339.7,201 340.1,225 340.8,224.6 			"/>
		</g>
		<g>
			<polygon class="st10" points="327.4,232.5 327,232.2 326.6,208.9 327,208.7 327.2,220.1 			"/>
			<polygon class="st9" points="327.7,208.3 327,208.7 327.4,232.5 328.1,232.1 			"/>
		</g>
	</g>
	<g>
		<g>
			<polygon class="st7" points="314.8,272 417.1,212.9 417.1,185.9 314.2,246.5 			"/>
			<polygon class="st3" points="414,214.9 417.1,212.9 417.1,185.9 413.9,187.1 			"/>
			<polygon class="st8" points="314.8,272 314.7,268.3 414,211.3 417.1,212.9 			"/>
		</g>
		<polygon class="st9" points="314.4,256.6 405.5,205 405.5,205.9 314.4,257.3 		"/>
		<polygon class="st9" points="404.9,205.4 414.5,199.9 414.5,200.7 404.9,206.2 		"/>
		<polygon class="st10" points="413.8,200 314.4,256.2 314.4,256.6 414.5,199.9 		"/>
		<g>
			<polygon class="st10" points="402.5,218.9 402.1,218.7 402.1,194.8 402.5,194.5 402.5,206.3 			"/>
			<polygon class="st9" points="403.2,194 402.5,194.5 402.5,218.9 403.3,218.4 			"/>
		</g>
		<g>
			<polygon class="st10" points="390,226.2 389.6,226 389.4,202.3 389.8,202 389.9,213.7 			"/>
			<polygon class="st9" points="390.6,201.5 389.8,202 390,226.2 390.7,225.8 			"/>
		</g>
		<g>
			<polygon class="st10" points="377.8,233.2 377.4,232.9 377.2,209.3 377.6,209.1 377.7,220.7 			"/>
			<polygon class="st9" points="378.4,208.6 377.6,209.1 377.8,233.2 378.6,232.7 			"/>
		</g>
		<g>
			<polygon class="st10" points="365.6,240.3 365.2,240.1 365,216.6 365.3,216.4 365.5,227.9 			"/>
			<polygon class="st9" points="366.1,216 365.3,216.4 365.6,240.3 366.3,240 			"/>
		</g>
		<g>
			<polygon class="st10" points="353.6,247.2 353.2,246.9 352.9,223.6 353.2,223.3 353.4,234.8 			"/>
			<polygon class="st9" points="354,222.9 353.2,223.3 353.6,247.2 354.3,246.8 			"/>
		</g>
		<g>
			<polygon class="st10" points="340.6,254.7 340.2,254.5 339.8,231.3 340.2,231.1 340.4,242.5 			"/>
			<polygon class="st9" points="340.9,230.7 340.2,231.1 340.6,254.7 341.3,254.4 			"/>
		</g>
		<g>
			<polygon class="st10" points="328,262 327.6,261.8 327.2,238.8 327.5,238.5 327.8,249.9 			"/>
			<polygon class="st9" points="328.2,238.1 327.5,238.5 328,262 328.7,261.7 			"/>
		</g>
	</g>
	<g>
		<g>
			<polygon class="st7" points="313.2,314.9 416.2,254.2 416.2,226.9 312.6,289 			"/>
			<polygon class="st3" points="413,256.3 416.2,254.2 416.2,226.9 413,228.1 			"/>
			<polygon class="st8" points="313.2,314.9 313.1,311.2 413,252.6 416.2,254.2 			"/>
		</g>
		<polygon class="st9" points="312.8,299.4 404.5,246.4 404.5,247.2 312.8,300 		"/>
		<polygon class="st9" points="403.9,246.7 413.6,241.1 413.6,241.9 403.9,247.5 		"/>
		<polygon class="st10" points="412.8,241.2 312.8,298.9 312.8,299.4 413.6,241.1 		"/>
		<g>
			<polygon class="st10" points="401.5,260.4 401.1,260.2 401,236 401.4,235.7 401.4,247.7 			"/>
			<polygon class="st9" points="402.1,235.2 401.4,235.7 401.5,260.4 402.2,260 			"/>
		</g>
		<g>
			<polygon class="st10" points="388.9,268 388.5,267.7 388.3,243.7 388.7,243.4 388.8,255.3 			"/>
			<polygon class="st9" points="389.4,242.9 388.7,243.4 388.9,268 389.6,267.5 			"/>
		</g>
		<g>
			<polygon class="st10" points="376.6,275.1 376.2,274.8 376,250.9 376.4,250.7 376.5,262.4 			"/>
			<polygon class="st9" points="377.2,250.2 376.4,250.7 376.6,275.1 377.4,274.6 			"/>
		</g>
		<g>
			<polygon class="st10" points="364.3,282.4 363.9,282.2 363.7,258.4 364.1,258.1 364.2,269.9 			"/>
			<polygon class="st9" points="364.8,257.7 364.1,258.1 364.3,282.4 365,282 			"/>
		</g>
		<g>
			<polygon class="st10" points="352.2,289.4 351.8,289.2 351.5,265.6 351.9,265.3 352,277 			"/>
			<polygon class="st9" points="352.6,264.9 351.9,265.3 352.2,289.4 352.9,289.1 			"/>
		</g>
		<g>
			<polygon class="st10" points="339.1,297.2 338.8,297 338.4,273.5 338.8,273.2 338.9,284.8 			"/>
			<polygon class="st9" points="339.5,272.8 338.8,273.2 339.1,297.2 339.9,296.8 			"/>
		</g>
		<g>
			<polygon class="st10" points="326.5,304.7 326.1,304.5 325.6,281.1 326,280.9 326.2,292.4 			"/>
			<polygon class="st9" points="326.7,280.5 326,280.9 326.5,304.7 327.2,304.3 			"/>
		</g>
	</g>
	<g>
		<g>
			<polygon class="st7" points="313.8,344.3 416.2,285.1 416.2,258.2 313.2,318.7 			"/>
			<polygon class="st3" points="413,287.1 416.2,285.1 416.2,258.2 413,259.4 			"/>
			<polygon class="st8" points="313.8,344.3 313.7,340.5 413,283.5 416.2,285.1 			"/>
		</g>
		<polygon class="st9" points="313.5,328.9 404.6,277.3 404.6,278.1 313.5,329.6 		"/>
		<polygon class="st9" points="404,277.7 413.6,272.1 413.6,272.9 404,278.4 		"/>
		<polygon class="st10" points="412.9,272.2 313.5,328.5 313.5,328.9 413.6,272.1 		"/>
		<g>
			<polygon class="st10" points="401.6,291.2 401.2,290.9 401.1,267 401.5,266.8 401.5,278.5 			"/>
			<polygon class="st9" points="402.2,266.3 401.5,266.8 401.6,291.2 402.3,290.7 			"/>
		</g>
		<g>
			<polygon class="st10" points="389,298.5 388.6,298.2 388.5,274.5 388.9,274.3 389,285.9 			"/>
			<polygon class="st9" points="389.6,273.8 388.9,274.3 389,298.5 389.8,298 			"/>
		</g>
		<g>
			<polygon class="st10" points="376.9,305.4 376.5,305.2 376.3,281.6 376.7,281.3 376.8,292.9 			"/>
			<polygon class="st9" points="377.4,280.8 376.7,281.3 376.9,305.4 377.6,304.9 			"/>
		</g>
		<g>
			<polygon class="st10" points="364.7,312.6 364.3,312.3 364,288.8 364.4,288.6 364.5,300.2 			"/>
			<polygon class="st9" points="365.1,288.2 364.4,288.6 364.7,312.6 365.4,312.2 			"/>
		</g>
		<g>
			<polygon class="st10" points="352.6,319.4 352.2,319.2 351.9,295.8 352.3,295.6 352.5,307.1 			"/>
			<polygon class="st9" points="353,295.2 352.3,295.6 352.6,319.4 353.3,319 			"/>
		</g>
		<g>
			<polygon class="st10" points="339.6,327 339.3,326.7 338.9,303.5 339.2,303.3 339.4,314.7 			"/>
			<polygon class="st9" points="340,302.9 339.2,303.3 339.6,327 340.3,326.6 			"/>
		</g>
		<g>
			<polygon class="st10" points="327,334.3 326.7,334 326.2,311 326.6,310.8 326.8,322.1 			"/>
			<polygon class="st9" points="327.3,310.4 326.6,310.8 327,334.3 327.7,333.9 			"/>
		</g>
	</g>
	<g>
		<g>
			<polygon class="st7" points="172,363.1 260.1,310.2 260.5,287.7 171.5,341 			"/>
			<polygon class="st3" points="257.5,311.9 260.1,310.2 260.5,287.7 257.9,288.7 			"/>
			<polygon class="st8" points="172,363.1 171.9,359.9 257.6,308.9 260.1,310.2 			"/>
		</g>
		<polygon class="st9" points="171.7,349.8 250.8,303.8 250.8,304.5 171.7,350.4 		"/>
		<polygon class="st9" points="250.3,304.1 258.2,299.4 258.2,300.1 250.2,304.8 		"/>
		<polygon class="st10" points="257.6,299.5 171.7,349.4 171.7,349.8 258.2,299.4 		"/>
		<g>
			<polygon class="st10" points="248.1,315.4 247.8,315.2 248,295.2 248.4,295 248.2,304.9 			"/>
			<polygon class="st9" points="249,294.6 248.4,295 248.1,315.4 248.7,315 			"/>
		</g>
		<g>
			<polygon class="st10" points="237.6,321.8 237.3,321.6 237.4,301.6 237.8,301.4 237.7,311.2 			"/>
			<polygon class="st9" points="238.4,301 237.8,301.4 237.6,321.8 238.2,321.4 			"/>
		</g>
		<g>
			<polygon class="st10" points="227.3,327.8 227,327.7 227.1,307.7 227.4,307.5 227.4,317.3 			"/>
			<polygon class="st9" points="228,307.1 227.4,307.5 227.3,327.8 227.9,327.4 			"/>
		</g>
		<g>
			<polygon class="st10" points="216.9,334.2 216.5,334 216.5,314.1 216.8,313.9 216.8,323.7 			"/>
			<polygon class="st9" points="217.5,313.5 216.8,313.9 216.9,334.2 217.5,333.9 			"/>
		</g>
		<g>
			<polygon class="st10" points="206.4,340.3 206.1,340.2 206,320.2 206.3,320 206.4,329.8 			"/>
			<polygon class="st9" points="206.9,319.7 206.3,320 206.4,340.3 207.1,340 			"/>
		</g>
		<g>
			<polygon class="st10" points="195.1,347.2 194.7,347 194.5,327.1 194.8,326.9 194.9,336.7 			"/>
			<polygon class="st9" points="195.4,326.6 194.8,326.9 195.1,347.2 195.7,346.9 			"/>
		</g>
		<g>
			<polygon class="st10" points="183.9,353.9 183.6,353.7 183.2,333.9 183.5,333.7 183.7,343.5 			"/>
			<polygon class="st9" points="184.2,333.3 183.5,333.7 183.9,353.9 184.5,353.6 			"/>
		</g>
	</g>
	<g>
		<g>
			<polygon class="st7" points="172.5,313.5 259.7,258.6 260.1,236.7 172,291.9 			"/>
			<polygon class="st3" points="257.1,260.4 259.7,258.6 260.1,236.7 257.5,237.7 			"/>
			<polygon class="st8" points="172.5,313.5 172.4,310.3 257.2,257.5 259.7,258.6 			"/>
		</g>
		<polygon class="st9" points="172.2,300.5 250.4,252.7 250.4,253.4 172.2,301.1 		"/>
		<polygon class="st9" points="249.9,253.1 257.8,248.2 257.8,248.8 249.9,253.7 		"/>
		<polygon class="st10" points="257.2,248.3 172.1,300.1 172.2,300.5 257.8,248.2 		"/>
		<g>
			<polygon class="st10" points="247.8,264.2 247.5,264 247.7,244.4 248,244.2 247.9,253.9 			"/>
			<polygon class="st9" points="248.6,243.8 248,244.2 247.8,264.2 248.4,263.8 			"/>
		</g>
		<g>
			<polygon class="st10" points="237.4,270.8 237.1,270.6 237.2,251.1 237.5,250.8 237.5,260.5 			"/>
			<polygon class="st9" points="238.2,250.4 237.5,250.8 237.4,270.8 238,270.4 			"/>
		</g>
		<g>
			<polygon class="st10" points="227.2,277.1 226.9,276.9 226.9,257.4 227.3,257.2 227.2,266.8 			"/>
			<polygon class="st9" points="227.9,256.7 227.3,257.2 227.2,277.1 227.8,276.7 			"/>
		</g>
		<g>
			<polygon class="st10" points="216.8,283.7 216.5,283.5 216.5,264 216.8,263.8 216.8,273.4 			"/>
			<polygon class="st9" points="217.4,263.4 216.8,263.8 216.8,283.7 217.5,283.3 			"/>
		</g>
		<g>
			<polygon class="st10" points="206.5,290 206.2,289.9 206.1,270.4 206.4,270.2 206.5,279.8 			"/>
			<polygon class="st9" points="207,269.8 206.4,270.2 206.5,290 207.1,289.7 			"/>
		</g>
		<g>
			<polygon class="st10" points="195.3,297.1 194.9,297 194.7,277.5 195,277.3 195.1,286.9 			"/>
			<polygon class="st9" points="195.6,276.9 195,277.3 195.3,297.1 195.9,296.8 			"/>
		</g>
		<g>
			<polygon class="st10" points="184.2,304.1 183.9,303.9 183.5,284.6 183.9,284.3 184,293.9 			"/>
			<polygon class="st9" points="184.5,284 183.9,284.3 184.2,304.1 184.8,303.8 			"/>
		</g>
	</g>
	<polygon class="st8" points="336.1,75.1 315.4,65 332,55.7 320.1,50.4 303.8,59.4 285,50.2 273.5,56.8 292.2,65.8 272.5,76.7 
		283.9,82.6 303.9,71.4 324,81.2 	"/>
	<polygon class="st6" points="303.7,359.5 243.5,359.8 273.5,341.3 	"/>
	<g>
		<g>
			<polygon class="st7" points="153.6,359.8 79.3,317.9 79,297.4 154.1,338 			"/>
			<polygon class="st3" points="81.3,319.2 79.3,317.9 79,297.4 81.1,298 			"/>
			<polygon class="st8" points="153.6,359.8 153.7,356.7 81.3,316.4 79.3,317.9 			"/>
		</g>
		<polygon class="st9" points="153.9,346.7 86.7,311 86.7,311.6 153.9,347.3 		"/>
		<polygon class="st9" points="87.1,311.2 80.8,307.8 80.8,308.4 87.1,311.8 		"/>
		<polygon class="st10" points="81.3,307.8 153.9,346.4 153.9,346.7 80.8,307.8 		"/>
		<g>
			<polygon class="st10" points="88.8,321.4 89.1,321.2 88.9,302.8 88.6,302.6 88.7,311.7 			"/>
			<polygon class="st9" points="88.1,302.3 88.6,302.6 88.8,321.4 88.3,321.1 			"/>
		</g>
		<g>
			<polygon class="st10" points="97.3,326.2 97.6,326 97.4,307.4 97.2,307.3 97.2,316.5 			"/>
			<polygon class="st9" points="96.7,307 97.2,307.3 97.3,326.2 96.8,325.9 			"/>
		</g>
		<g>
			<polygon class="st10" points="105.7,330.9 106,330.7 105.9,312 105.7,311.8 105.7,321 			"/>
			<polygon class="st9" points="105.2,311.5 105.7,311.8 105.7,330.9 105.2,330.6 			"/>
		</g>
		<g>
			<polygon class="st10" points="114.4,335.9 114.7,335.7 114.8,316.8 114.5,316.6 114.5,325.9 			"/>
			<polygon class="st9" points="114,316.3 114.5,316.6 114.4,335.9 113.9,335.6 			"/>
		</g>
		<g>
			<polygon class="st10" points="123.3,340.7 123.6,340.5 123.7,321.5 123.4,321.3 123.4,330.7 			"/>
			<polygon class="st9" points="122.9,321.1 123.4,321.3 123.3,340.7 122.8,340.5 			"/>
		</g>
		<g>
			<polygon class="st10" points="133.1,346.3 133.4,346.1 133.6,326.9 133.3,326.7 133.2,336.2 			"/>
			<polygon class="st9" points="132.8,326.4 133.3,326.7 133.1,346.3 132.6,346 			"/>
		</g>
		<g>
			<polygon class="st10" points="142.9,351.9 143.2,351.6 143.6,332.3 143.3,332.1 143.1,341.7 			"/>
			<polygon class="st9" points="142.7,331.8 143.3,332.1 142.9,351.9 142.4,351.6 			"/>
		</g>
	</g>
	<g>
		<g>
			<polygon class="st7" points="153.2,311.1 79.7,270.7 79.4,250.7 153.6,289.9 			"/>
			<polygon class="st3" points="81.7,272 79.7,270.7 79.4,250.7 81.5,251.3 			"/>
			<polygon class="st8" points="153.2,311.1 153.3,308.1 81.7,269.3 79.7,270.7 			"/>
		</g>
		<polygon class="st9" points="153.5,298.4 87,264 87,264.6 153.5,299 		"/>
		<polygon class="st9" points="87.5,264.2 81.2,260.9 81.2,261.5 87.5,264.8 		"/>
		<polygon class="st10" points="81.7,260.9 153.5,298 153.5,298.4 81.2,260.9 		"/>
		<g>
			<polygon class="st10" points="89.1,274.1 89.4,273.9 89.2,255.9 89,255.8 89,264.6 			"/>
			<polygon class="st9" points="88.5,255.5 89,255.8 89.1,274.1 88.7,273.8 			"/>
		</g>
		<g>
			<polygon class="st10" points="97.5,278.8 97.8,278.6 97.7,260.4 97.4,260.3 97.5,269.2 			"/>
			<polygon class="st9" points="96.9,260 97.4,260.3 97.5,278.8 97,278.5 			"/>
		</g>
		<g>
			<polygon class="st10" points="105.9,283.3 106.1,283.1 106.1,264.8 105.8,264.6 105.8,273.6 			"/>
			<polygon class="st9" points="105.3,264.3 105.8,264.6 105.9,283.3 105.4,283 			"/>
		</g>
		<g>
			<polygon class="st10" points="114.5,288.1 114.8,287.9 114.8,269.4 114.5,269.2 114.5,278.3 			"/>
			<polygon class="st9" points="114,269 114.5,269.2 114.5,288.1 114,287.8 			"/>
		</g>
		<g>
			<polygon class="st10" points="123.2,292.8 123.5,292.5 123.6,274 123.4,273.8 123.3,283 			"/>
			<polygon class="st9" points="122.8,273.5 123.4,273.8 123.2,292.8 122.7,292.5 			"/>
		</g>
		<g>
			<polygon class="st10" points="132.9,298.1 133.2,297.9 133.5,279.2 133.2,279 133.1,288.2 			"/>
			<polygon class="st9" points="132.6,278.7 133.2,279 132.9,298.1 132.4,297.8 			"/>
		</g>
		<g>
			<polygon class="st10" points="142.7,303.4 143,303.2 143.3,284.4 143,284.2 142.8,293.5 			"/>
			<polygon class="st9" points="142.4,283.9 143,284.2 142.7,303.4 142.1,303.2 			"/>
		</g>
	</g>
</g>
</svg>
