<?xml version="1.0" encoding="utf-8"?>
<!-- Generator: Adobe Illustrator 22.0.1, SVG Export Plug-In . SVG Version: 6.00 Build 0)  -->
<svg version="1.1" id="Layer_1" xmlns="http://www.w3.org/2000/svg" xmlns:xlink="http://www.w3.org/1999/xlink" x="0px" y="0px"
	 viewBox="0 0 600 800" style="enable-background:new 0 0 600 800;" xml:space="preserve">
<style type="text/css">
	.st0{opacity:0.25;}
	.st1{fill:#7EA58E;}
	.st2{fill:#BFEFD3;}
</style>
<ellipse class="st0" cx="267.4" cy="590.8" rx="61.5" ry="28.4"/>
<g>
	<g>
		<path class="st1" d="M317,377.6c-18.1-1.1-38.1,4.2-55.3,24.3c-44,51.5,36,189.1,45.9,197.7c3.3,2.9,6.4,4.4,9.4,4.9V377.6z"/>
		<path class="st1" d="M317,377.6c18.1-1.1,38.1,4.2,55.3,24.3c44,51.5-36,189.1-45.9,197.7c-3.3,2.9-6.4,4.4-9.4,4.9V377.6z"/>
		<path class="st1" d="M366.5,304.1c0,27.4-22.2,49.6-49.6,49.6c-9.3,0-18-2.6-25.5-7c-14.4-8.7-24.1-24.5-24.1-42.5
			c0-27.4,22.2-49.6,49.6-49.6S366.5,276.7,366.5,304.1z"/>
	</g>
	<g>
		<path class="st2" d="M326.6,378.6c-12.5-0.9-26.4,3.5-38.3,20.1c-30.5,42.7,24.9,156.9,31.8,164c2.3,2.4,4.4,3.7,6.5,4.1V378.6z"
			/>
		<path class="st2" d="M326.6,378.6c12.5-0.9,26.4,3.5,38.3,20.1c30.5,42.7-24.9,156.9-31.8,164c-2.3,2.4-4.4,3.7-6.5,4.1V378.6z"/>
		<path class="st2" d="M360.2,305.7c0,22.5-14.6,40.7-32.6,40.7c-6.1,0-11.9-2.1-16.8-5.8c-9.5-7.1-15.9-20.1-15.9-34.9
			c0-22.5,14.6-40.7,32.6-40.7S360.2,283.3,360.2,305.7z"/>
	</g>
</g>
</svg>
