<?xml version="1.0" encoding="utf-8"?>
<!-- Generator: Adobe Illustrator 22.0.1, SVG Export Plug-In . SVG Version: 6.00 Build 0)  -->
<svg version="1.1" id="Layer_1" xmlns="http://www.w3.org/2000/svg" xmlns:xlink="http://www.w3.org/1999/xlink" x="0px" y="0px"
	 viewBox="0 0 181.1 367.2" style="enable-background:new 0 0 181.1 367.2;" xml:space="preserve">
<style type="text/css">
	.st0{opacity:0.25;enable-background:new    ;}
	.st1{fill:#81B0C1;}
	.st2{fill:#BAE2E8;}
	.st3{fill:#828282;}
	.st4{fill:#C9C9C9;}
	.st5{fill:#9B7E7C;}
	.st6{fill:#E8AB92;}
</style>
<ellipse class="st0" cx="63.5" cy="340.8" rx="61.5" ry="28.4"/>
<g>
	<g>
		<path class="st1" d="M112.7,127.6c-18.1-1.1-38.1,4.2-55.3,24.3c-44,51.5,36,189.1,45.9,197.7c3.3,2.9,6.4,4.4,9.4,4.9V127.6z"/>
		<path class="st1" d="M112.7,127.6c18.1-1.1,38.1,4.2,55.3,24.3c44,51.5-36,189.1-45.9,197.7c-3.3,2.9-6.4,4.4-9.4,4.9V127.6z"/>
		<path class="st1" d="M162.2,54.1c0,27.4-22.2,49.6-49.6,49.6c-9.3,0-18-2.6-25.5-7C72.7,88,63,72.2,63,54.2
			c0-27.4,22.2-49.6,49.6-49.6S162.2,26.7,162.2,54.1z"/>
	</g>
	<g>
		<path class="st2" d="M122.3,128.6c-12.5-0.9-26.4,3.5-38.3,20.1c-30.5,42.7,24.9,156.9,31.8,164c2.3,2.4,4.4,3.7,6.5,4.1V128.6z"
			/>
		<path class="st2" d="M122.3,128.6c12.5-0.9,26.4,3.5,38.3,20.1c30.5,42.7-24.9,156.9-31.8,164c-2.3,2.4-4.4,3.7-6.5,4.1V128.6z"/>
		<path class="st2" d="M155.9,55.7c0,22.5-14.6,40.7-32.6,40.7c-6.1,0-11.9-2.1-16.8-5.8C97,83.5,90.6,70.5,90.6,55.7
			c0-22.5,14.6-40.7,32.6-40.7C141.3,15,155.9,33.3,155.9,55.7z"/>
	</g>
</g>
<g>
	<g>
		<path class="st3" d="M112.6,127.6c-18.1-1.1-38.1,4.2-55.3,24.3c-44,51.5,36,189.1,45.9,197.7c3.3,2.9,6.4,4.4,9.4,4.9V127.6z"/>
		<path class="st3" d="M112.6,127.6c18.1-1.1,38.1,4.2,55.3,24.3c44,51.5-36,189.1-45.9,197.7c-3.3,2.9-6.4,4.4-9.4,4.9V127.6z"/>
		<path class="st3" d="M162.2,54.1c0,27.4-22.2,49.6-49.6,49.6c-9.3,0-18-2.6-25.5-7C72.7,88,63,72.2,63,54.2
			c0-27.4,22.2-49.6,49.6-49.6S162.2,26.7,162.2,54.1z"/>
	</g>
	<g>
		<path class="st4" d="M122.2,128.6c-12.5-0.9-26.4,3.5-38.3,20.1c-30.5,42.7,24.9,156.9,31.8,164c2.3,2.4,4.4,3.7,6.5,4.1V128.6z"
			/>
		<path class="st4" d="M122.2,128.6c12.5-0.9,26.4,3.5,38.3,20.1c30.5,42.7-24.9,156.9-31.8,164c-2.3,2.4-4.4,3.7-6.5,4.1V128.6z"/>
		<path class="st4" d="M155.8,55.7c0,22.5-14.6,40.7-32.6,40.7c-6.1,0-11.9-2.1-16.8-5.8c-9.5-7.1-15.9-20.1-15.9-34.9
			c0-22.5,14.6-40.7,32.6-40.7C141.2,15,155.8,33.3,155.8,55.7z"/>
	</g>
</g>
<g>
	<g>
		<path class="st5" d="M112.7,127.6c-18.1-1.1-38.1,4.2-55.3,24.3c-44,51.5,36,189.1,45.9,197.7c3.3,2.9,6.4,4.4,9.4,4.9V127.6z"/>
		<path class="st5" d="M112.7,127.6c18.1-1.1,38.1,4.2,55.3,24.3c44,51.5-36,189.1-45.9,197.7c-3.3,2.9-6.4,4.4-9.4,4.9V127.6z"/>
		<path class="st5" d="M162.3,54.1c0,27.4-22.2,49.6-49.6,49.6c-9.3,0-18-2.6-25.5-7C72.8,88,63.1,72.2,63.1,54.2
			c0-27.4,22.2-49.6,49.6-49.6S162.3,26.7,162.3,54.1z"/>
	</g>
	<g>
		<path class="st6" d="M122.3,128.6c-12.5-0.9-26.4,3.5-38.3,20.1c-30.5,42.7,24.9,156.9,31.8,164c2.3,2.4,4.4,3.7,6.5,4.1V128.6z"
			/>
		<path class="st6" d="M122.3,128.6c12.5-0.9,26.4,3.5,38.3,20.1c30.5,42.7-24.9,156.9-31.8,164c-2.3,2.4-4.4,3.7-6.5,4.1V128.6z"/>
		<path class="st6" d="M155.9,55.7c0,22.5-14.6,40.7-32.6,40.7c-6.1,0-11.9-2.1-16.8-5.8C97,83.5,90.6,70.5,90.6,55.7
			c0-22.5,14.6-40.7,32.6-40.7S155.9,33.3,155.9,55.7z"/>
	</g>
</g>
</svg>
