<?xml version="1.0" encoding="utf-8"?>
<!-- Generator: Adobe Illustrator 22.0.1, SVG Export Plug-In . SVG Version: 6.00 Build 0)  -->
<svg version="1.1" id="Layer_1" xmlns="http://www.w3.org/2000/svg" xmlns:xlink="http://www.w3.org/1999/xlink" x="0px" y="0px"
	 viewBox="0 0 600 800" style="enable-background:new 0 0 600 800;" xml:space="preserve">
<style type="text/css">
	.st0{opacity:0.25;}
	.st1{fill:#8C7993;}
	.st2{fill:#C3AAD1;}
</style>
<ellipse class="st0" cx="269.2" cy="587.8" rx="61.5" ry="28.4"/>
<g>
	<g>
		<path class="st1" d="M315.4,380.4c-18.1-1.1-38.1,4.2-55.3,24.3c-44,51.5,36,189.1,45.9,197.7c3.3,2.9,6.4,4.4,9.4,4.9V380.4z"/>
		<path class="st1" d="M315.4,380.4c18.1-1.1,38.1,4.2,55.3,24.3c44,51.5-36,189.1-45.9,197.7c-3.3,2.9-6.4,4.4-9.4,4.9V380.4z"/>
		<path class="st1" d="M365,306.9c0,27.4-22.2,49.6-49.6,49.6c-9.3,0-18-2.6-25.5-7c-14.4-8.7-24.1-24.5-24.1-42.5
			c0-27.4,22.2-49.6,49.6-49.6S365,279.5,365,306.9z"/>
	</g>
	<g>
		<path class="st2" d="M325,381.4c-12.5-0.9-26.4,3.5-38.3,20.1c-30.5,42.7,24.9,156.9,31.8,164c2.3,2.4,4.4,3.7,6.5,4.1V381.4z"/>
		<path class="st2" d="M325,381.4c12.5-0.9,26.4,3.5,38.3,20.1c30.5,42.7-24.9,156.9-31.8,164c-2.3,2.4-4.4,3.7-6.5,4.1V381.4z"/>
		<path class="st2" d="M358.6,308.6c0,22.5-14.6,40.7-32.6,40.7c-6.1,0-11.9-2.1-16.8-5.8c-9.5-7.1-15.9-20.1-15.9-34.9
			c0-22.5,14.6-40.7,32.6-40.7C344,267.9,358.6,286.1,358.6,308.6z"/>
	</g>
</g>
</svg>
