<?xml version="1.0" encoding="utf-8"?>
<!-- Generator: Adobe Illustrator 22.0.1, SVG Export Plug-In . SVG Version: 6.00 Build 0)  -->
<svg version="1.1" id="Layer_1" xmlns="http://www.w3.org/2000/svg" xmlns:xlink="http://www.w3.org/1999/xlink" x="0px" y="0px"
	 viewBox="0 0 553 302.4" style="enable-background:new 0 0 553 302.4;" xml:space="preserve">
<style type="text/css">
	.st0{fill:#9CD3B5;}
	.st1{opacity:0.14;}
	.st2{fill:#7A9989;}
	.st3{fill:#FFFFFF;}
	.st4{fill:#7C7C7C;}
	.st5{fill:#C3DEE2;}
	.st6{fill:#4E5E5D;}
	.st7{fill:#9CAFA5;}
	.st8{fill:#5D6664;}
	.st9{fill:#A9AAAA;}
	.st10{fill:#D0EDEF;}
	.st11{fill:#6F8280;}
	.st12{fill:#847F61;}
	.st13{fill:#B7AE7E;}
	.st14{fill:#9DD6CB;}
	.st15{fill:#7B9B95;}
	.st16{opacity:0.8;}
	.st17{opacity:0.6;fill:#575757;}
	.st18{fill:#FEFEFE;}
</style>
<g>
	<g>
		<polygon class="st0" points="313.3,144.4 313.3,220.6 395.4,178.1 395.4,150.6 412.4,141.6 412.4,170 419.5,166.6 419.5,89.6 		
			"/>
		<polygon class="st1" points="233.7,179.9 156.1,179.9 232,220.6 313.4,220.6 		"/>
		<polygon class="st2" points="234.1,110.4 234.1,180.4 313.3,220.6 313.3,144.4 268,59.1 		"/>
		<polygon class="st3" points="267.6,54.1 315.6,147.6 424.3,90.4 376.1,9 		"/>
		<polygon class="st4" points="229.9,111.5 267.6,54.1 315.6,147.6 308.4,144.6 266.2,63.8 236.1,111.2 		"/>
		<g>
			<g>
				<polygon class="st5" points="268.1,171.1 247,160.1 247,132.4 268.1,143.4 				"/>
				<polygon class="st6" points="250.1,161.7 247,160.1 247,132.4 250.1,134 				"/>
				<polygon class="st7" points="268.1,171.1 268.1,167.2 250.1,158 247,160.1 				"/>
			</g>
			<polygon class="st8" points="258.5,162.8 258.9,162.5 258.9,138.6 258.5,138.4 258.5,150.1 			"/>
			<polygon class="st9" points="268.1,154.9 258.1,150.5 258.1,151.4 268.1,155.6 			"/>
			<polygon class="st9" points="258.7,150.8 249.5,146.8 249.5,147.6 258.7,151.6 			"/>
			<polygon class="st8" points="250.2,146.8 268.1,154.5 268.1,154.9 249.5,146.8 			"/>
			<polygon class="st9" points="257.8,138 258.5,138.4 258.5,162.8 257.8,162.4 			"/>
		</g>
		<g>
			<g>
				<polygon class="st5" points="296.1,184.5 275.1,173.5 275.1,145.8 296.1,156.8 				"/>
				<polygon class="st6" points="278.1,175.1 275.1,173.5 275.1,145.8 278.1,147.4 				"/>
				<polygon class="st7" points="296.1,184.5 296.1,180.6 278.1,171.4 275.1,173.5 				"/>
			</g>
			<polygon class="st8" points="286.6,176.2 287,175.9 287,152 286.6,151.8 286.6,163.6 			"/>
			<polygon class="st9" points="296.1,168.3 286.2,164 286.2,164.8 296.1,169.1 			"/>
			<polygon class="st9" points="286.8,164.2 277.6,160.2 277.6,161 286.8,165 			"/>
			<polygon class="st8" points="278.3,160.2 296.1,167.9 296.1,168.3 277.6,160.2 			"/>
			<polygon class="st9" points="285.9,151.4 286.6,151.8 286.6,176.2 285.9,175.9 			"/>
		</g>
		<g>
			<g>
				<polygon class="st10" points="358,171.6 379.1,160.6 379.1,132.9 358,143.9 				"/>
				<polygon class="st11" points="376,162.2 379.1,160.6 379.1,132.9 376,134.5 				"/>
				<polygon class="st7" points="358,171.6 358,167.7 376,158.6 379.1,160.6 				"/>
			</g>
			<polygon class="st8" points="367.6,163.3 367.2,163 367.2,139.1 367.6,138.9 367.6,150.7 			"/>
			<polygon class="st9" points="358,155.5 368,151.1 368,151.9 358,156.2 			"/>
			<polygon class="st9" points="367.4,151.3 376.6,147.3 376.6,148.1 367.4,152.1 			"/>
			<polygon class="st8" points="375.9,147.3 358,155 358,155.5 376.6,147.3 			"/>
			<polygon class="st9" points="368.3,138.6 367.6,138.9 367.6,163.3 368.3,163 			"/>
		</g>
		<g>
			<g>
				<polygon class="st10" points="329.9,185 351,174 351,146.3 329.9,157.3 				"/>
				<polygon class="st11" points="347.9,175.6 351,174 351,146.3 347.9,147.9 				"/>
				<polygon class="st7" points="329.9,185 329.9,181.1 347.9,172 351,174 				"/>
			</g>
			<polygon class="st8" points="339.5,176.7 339.1,176.4 339.1,152.5 339.5,152.3 339.5,164.1 			"/>
			<polygon class="st9" points="329.9,168.9 339.9,164.5 339.9,165.3 329.9,169.6 			"/>
			<polygon class="st9" points="339.3,164.8 348.5,160.7 348.5,161.5 339.3,165.5 			"/>
			<polygon class="st8" points="347.8,160.7 329.9,168.4 329.9,168.9 348.5,160.7 			"/>
			<polygon class="st9" points="340.2,152 339.5,152.3 339.5,176.7 340.2,176.4 			"/>
		</g>
		<polygon class="st5" points="395.4,175.5 409.4,168.7 412.4,141.6 395.4,150.6 		"/>
		<polygon class="st11" points="409.4,168.7 412.4,170.1 412.4,141.6 409.4,143.2 		"/>
		<ellipse class="st12" cx="397.3" cy="161.6" rx="1" ry="0.8"/>
		<ellipse class="st13" cx="397.6" cy="161.6" rx="1" ry="0.8"/>
	</g>
	<g>
		<polygon class="st14" points="442,216.5 442,292.8 524,250.3 524,222.7 541,213.7 541,242.2 548.2,238.8 548.2,161.8 		"/>
		<polygon class="st1" points="362.3,252.1 284.8,252.1 360.6,292.8 442,292.8 		"/>
		<polygon class="st15" points="362.7,182.5 362.7,252.5 442,292.8 442,216.5 396.6,131.3 		"/>
		<polygon class="st3" points="396.2,126.3 444.2,219.8 553,162.5 504.7,81.2 		"/>
		<polygon class="st4" points="358.6,183.7 396.2,126.3 444.2,219.8 437,216.8 394.9,136 364.7,183.3 		"/>
		<g>
			<g>
				<polygon class="st5" points="396.7,243.2 375.7,232.2 375.7,204.6 396.7,215.6 				"/>
				<polygon class="st6" points="378.7,233.8 375.7,232.2 375.7,204.6 378.7,206.1 				"/>
				<polygon class="st7" points="396.7,243.2 396.7,239.3 378.7,230.2 375.7,232.2 				"/>
			</g>
			<polygon class="st8" points="387.1,235 387.5,234.7 387.5,210.7 387.1,210.6 387.1,222.3 			"/>
			<polygon class="st9" points="396.7,227.1 386.7,222.7 386.7,223.5 396.7,227.8 			"/>
			<polygon class="st9" points="387.3,223 378.1,218.9 378.1,219.7 387.3,223.8 			"/>
			<polygon class="st8" points="378.8,218.9 396.7,226.6 396.7,227.1 378.1,218.9 			"/>
			<polygon class="st9" points="386.4,210.2 387.1,210.6 387.1,235 386.4,234.6 			"/>
		</g>
		<g>
			<g>
				<polygon class="st5" points="424.8,256.6 403.8,245.6 403.8,218 424.8,229 				"/>
				<polygon class="st6" points="406.8,247.2 403.8,245.6 403.8,218 406.8,219.6 				"/>
				<polygon class="st7" points="424.8,256.6 424.8,252.7 406.8,243.6 403.8,245.6 				"/>
			</g>
			<polygon class="st8" points="415.2,248.4 415.6,248.1 415.6,224.2 415.2,224 415.2,235.7 			"/>
			<polygon class="st9" points="424.8,240.5 414.8,236.1 414.8,236.9 424.8,241.2 			"/>
			<polygon class="st9" points="415.4,236.4 406.2,232.3 406.2,233.1 415.4,237.2 			"/>
			<polygon class="st8" points="406.9,232.3 424.8,240.1 424.8,240.5 406.2,232.3 			"/>
			<polygon class="st9" points="414.5,223.6 415.2,224 415.2,248.4 414.5,248 			"/>
		</g>
		<g>
			<g>
				<polygon class="st5" points="486.7,243.7 507.7,232.7 507.7,205.1 486.7,216.1 				"/>
				<polygon class="st11" points="504.7,234.3 507.7,232.7 507.7,205.1 504.7,206.7 				"/>
				<polygon class="st7" points="486.7,243.7 486.7,239.8 504.7,230.7 507.7,232.7 				"/>
			</g>
			<polygon class="st8" points="496.2,235.5 495.9,235.2 495.9,211.3 496.2,211.1 496.2,222.8 			"/>
			<polygon class="st9" points="486.7,227.6 496.7,223.2 496.7,224 486.7,228.3 			"/>
			<polygon class="st9" points="496,223.5 505.2,219.4 505.2,220.2 496,224.3 			"/>
			<polygon class="st8" points="504.5,219.4 486.7,227.2 486.7,227.6 505.2,219.4 			"/>
			<polygon class="st9" points="496.9,210.7 496.2,211.1 496.2,235.5 496.9,235.1 			"/>
		</g>
		<g>
			<g>
				<polygon class="st5" points="458.6,257.2 479.6,246.2 479.6,218.5 458.6,229.5 				"/>
				<polygon class="st11" points="476.6,247.7 479.6,246.2 479.6,218.5 476.6,220.1 				"/>
				<polygon class="st7" points="458.6,257.2 458.6,253.2 476.6,244.1 479.6,246.2 				"/>
			</g>
			<polygon class="st8" points="468.2,248.9 467.8,248.6 467.8,224.7 468.2,224.5 468.2,236.2 			"/>
			<polygon class="st9" points="458.6,241 468.6,236.6 468.6,237.4 458.6,241.7 			"/>
			<polygon class="st9" points="468,236.9 477.1,232.8 477.1,233.7 468,237.7 			"/>
			<polygon class="st8" points="476.5,232.8 458.6,240.6 458.6,241 477.1,232.8 			"/>
			<polygon class="st9" points="468.9,224.1 468.2,224.5 468.2,248.9 468.9,248.5 			"/>
		</g>
		<polygon class="st5" points="524,247.6 538,240.9 541,213.7 524,222.7 		"/>
		<polygon class="st11" points="538,240.9 541,242.2 541,213.7 538,215.3 		"/>
		<ellipse class="st12" cx="525.9" cy="233.7" rx="1" ry="0.8"/>
		<ellipse class="st13" cx="526.2" cy="233.7" rx="1" ry="0.8"/>
	</g>
	<g>
		<polygon class="st14" points="158.9,223.2 158.9,299.5 240.9,257 240.9,229.5 257.9,220.5 257.9,248.9 265.1,245.5 265.1,168.5 		
			"/>
		<polygon class="st1" points="79.2,258.8 1.7,258.8 77.5,299.5 158.9,299.5 		"/>
		<polygon class="st15" points="79.6,189.2 79.6,259.2 158.9,299.5 158.9,223.2 113.5,138 		"/>
		<polygon class="st3" points="113.1,133 161.1,226.5 269.9,169.2 221.6,87.9 		"/>
		<polygon class="st4" points="75.5,190.4 113.1,133 161.1,226.5 153.9,223.5 111.8,142.7 81.6,190.1 		"/>
		<g>
			<g>
				<polygon class="st5" points="113.6,249.9 92.6,238.9 92.6,211.3 113.6,222.3 				"/>
				<polygon class="st6" points="95.6,240.5 92.6,238.9 92.6,211.3 95.6,212.9 				"/>
				<polygon class="st7" points="113.6,249.9 113.6,246 95.6,236.9 92.6,238.9 				"/>
			</g>
			<polygon class="st8" points="104,241.7 104.4,241.4 104.4,217.5 104,217.3 104,229 			"/>
			<polygon class="st9" points="113.6,233.8 103.6,229.4 103.6,230.2 113.6,234.5 			"/>
			<polygon class="st9" points="104.2,229.7 95,225.6 95,226.4 104.2,230.5 			"/>
			<polygon class="st8" points="95.7,225.6 113.6,233.4 113.6,233.8 95,225.6 			"/>
			<polygon class="st9" points="103.3,216.9 104,217.3 104,241.7 103.3,241.3 			"/>
		</g>
		<g>
			<g>
				<polygon class="st5" points="141.7,263.4 120.7,252.4 120.7,224.7 141.7,235.7 				"/>
				<polygon class="st6" points="123.7,253.9 120.7,252.4 120.7,224.7 123.7,226.3 				"/>
				<polygon class="st7" points="141.7,263.4 141.7,259.4 123.7,250.3 120.7,252.4 				"/>
			</g>
			<polygon class="st8" points="132.1,255.1 132.5,254.8 132.5,230.9 132.1,230.7 132.1,242.4 			"/>
			<polygon class="st9" points="141.7,247.2 131.7,242.8 131.7,243.6 141.7,247.9 			"/>
			<polygon class="st9" points="132.3,243.1 123.1,239 123.1,239.9 132.3,243.9 			"/>
			<polygon class="st8" points="123.8,239 141.7,246.8 141.7,247.2 123.1,239 			"/>
			<polygon class="st9" points="131.4,230.3 132.1,230.7 132.1,255.1 131.4,254.7 			"/>
		</g>
		<g>
			<g>
				<polygon class="st5" points="203.6,250.5 224.6,239.5 224.6,211.8 203.6,222.8 				"/>
				<polygon class="st11" points="221.6,241.1 224.6,239.5 224.6,211.8 221.6,213.4 				"/>
				<polygon class="st7" points="203.6,250.5 203.6,246.6 221.6,237.4 224.6,239.5 				"/>
			</g>
			<polygon class="st8" points="213.1,242.2 212.8,241.9 212.8,218 213.1,217.8 213.1,229.5 			"/>
			<polygon class="st9" points="203.6,234.3 213.6,229.9 213.6,230.7 203.6,235 			"/>
			<polygon class="st9" points="213,230.2 222.1,226.1 222.1,227 213,231 			"/>
			<polygon class="st8" points="221.4,226.1 203.6,233.9 203.6,234.3 222.1,226.1 			"/>
			<polygon class="st9" points="213.8,217.4 213.1,217.8 213.1,242.2 213.8,241.8 			"/>
		</g>
		<g>
			<g>
				<polygon class="st5" points="175.5,263.9 196.5,252.9 196.5,225.2 175.5,236.2 				"/>
				<polygon class="st11" points="193.5,254.5 196.5,252.9 196.5,225.2 193.5,226.8 				"/>
				<polygon class="st7" points="175.5,263.9 175.5,260 193.5,250.8 196.5,252.9 				"/>
			</g>
			<polygon class="st8" points="185.1,255.6 184.7,255.3 184.7,231.4 185.1,231.2 185.1,243 			"/>
			<polygon class="st9" points="175.5,247.7 185.5,243.3 185.5,244.2 175.5,248.5 			"/>
			<polygon class="st9" points="184.9,243.6 194,239.6 194,240.4 184.9,244.4 			"/>
			<polygon class="st8" points="193.4,239.6 175.5,247.3 175.5,247.7 194,239.6 			"/>
			<polygon class="st9" points="185.8,230.8 185.1,231.2 185.1,255.6 185.8,255.2 			"/>
		</g>
		<polygon class="st5" points="240.9,254.4 254.9,247.6 257.9,220.5 240.9,229.5 		"/>
		<polygon class="st11" points="254.9,247.6 257.9,249 257.9,220.5 254.9,222.1 		"/>
		<ellipse class="st12" cx="242.8" cy="240.4" rx="1" ry="0.8"/>
		<ellipse class="st13" cx="243.1" cy="240.4" rx="1" ry="0.8"/>
	</g>
	<g class="st16">
		<path class="st17" d="M330.8,106c-1.3,0.1-1.9-0.5-1.9-1.6c0-0.6-0.2-1.3-0.3-1.9c-0.1-0.5-0.4-0.8-0.7-1.1
			c-0.9-0.6-2.1-0.4-3.1-0.9c-1.1-0.5-2.1-0.1-3,0.5c-0.9,0.6-1.9,1.1-2.8,1.6c-0.7,0.4-1.4,0.3-2.1-0.2c-1.3-0.8-2.4-1.8-3.6-2.8
			c-0.6-0.5-0.7-0.9-0.3-1.6c0.5-0.9,1.4-1.6,2-2.4c0.5-0.8,0.8-1.4,0.3-2.4c-0.3-0.7-0.7-1.4-1-2.1c-0.2-0.6-0.6-0.8-1.3-0.8
			c-1.1,0-2.3-0.2-3.4-0.2c-0.9,0-1.4-0.4-1.3-1.3c0.1-1.7,0.3-3.3,0.5-5c0.1-0.8,0.6-1,1.3-1.2c0.9-0.2,1.8-0.6,2.8-0.7
			c1.6-0.2,2.4-1.3,3.2-2.4c1.5-2,1.1-3.5-0.5-5.1c-0.8-0.8-0.8-1.5,0.1-2.2c1.6-1.3,3.1-2.7,4.8-3.9c0.7-0.5,1.4-0.5,2-0.1
			c0.9,0.6,2,0.7,2.8,1.3c0.5,0.3,1,0.2,1.5,0c1.4-0.6,2.8-1.2,4.2-1.8c1-0.5,1.1-1.5,1.3-2.4c0.3-2.3,1.8-3,4-3
			c1.4,0,2.7-0.2,4.1-0.3c1.1-0.1,1.8,0.3,1.8,1.3c-0.1,3,1.6,4,4.4,4.2c1,0.1,1.9,0.2,2.8-0.4c0.6-0.4,1.4-0.7,1.9-1.2
			c1.3-1,2.4-1,3.6,0.1c1,1,2.3,1.6,3.2,2.6c0.5,0.5,0.5,0.8,0.1,1.3c-0.6,0.8-1.2,1.7-1.9,2.4c-0.8,0.8-0.9,1.5-0.5,2.5
			c1.4,3.2,0.9,2.9,4.6,3.2c2.5,0.2,2.6,0.2,2.3,2.6c-0.1,1.1-0.2,2.3-0.3,3.4c-0.1,0.9-0.5,1.2-1.3,1.4c-0.9,0.3-1.7,0.6-2.6,0.7
			c-3,0.3-3.4,2.8-4.5,4.7c-0.5,0.8,0.5,1.6,1.1,2.2c1.5,1.8,1.5,1.7-0.4,3.4c-1.2,1.1-2.5,2.1-3.8,3.2c-0.6,0.5-1.3,0.7-2.1,0.3
			c-0.8-0.5-1.8-0.7-2.6-1.2c-0.5-0.3-1.1-0.4-1.7-0.1c-0.9,0.4-1.9,0.8-2.9,1.1c-1.7,0.5-2.5,1.8-2.9,3.3c-0.6,2.3-0.8,2.4-3.3,2.6
			C333.9,105.6,332.4,105.8,330.8,106z"/>
		<path class="st17" d="M341.3,46c2.2,0.7,3.2-1,4.4-2.1c0.5-0.5,0.4-1.2,0.2-1.9c-0.5-1.2,0.2-1.8,1.3-2.1c1-0.4,2-0.6,2.9-1.1
			c0.9-0.4,1.4-0.1,1.9,0.5c1.6,1.9,4.4,1.9,6-0.1c0.9-1.1,2-1.9,3.6-1.1c0.2,0.1,0.4,0.1,0.7,0.1c2.2,0.6,2.2,0.6,1.7,2.7
			c-0.4,1.5,1.3,3.2,2.9,2.9c0.4-0.1,0.7-0.1,1.1-0.2c2.2-0.5,2.2-0.5,3.1,1.5c0.1,0.4,0.2,0.7,0.4,1.1c0.3,0.7,0.3,1.1-0.5,1.6
			c-1.2,0.7-2.8,1.3-2.7,3.2c0,1,0.2,1.7,1.3,2.1c1.8,0.7,1.8,0.8,0.8,2.4c0,0-0.1,0.1-0.1,0.1c-0.7,2.4-2.3,3.1-4.8,2.7
			c-1.6-0.3-3.7,2.2-3.3,3.7c0.3,1.2,0,2-1.4,2.3c-0.5,0.1-0.9,0.4-1.4,0.6c-2.5,0.9-2.6,1.2-4-0.9c-0.3-0.4-0.7-0.5-1-0.5
			c-1.8,0.1-3.7,0-4.8,1.8c-0.7,1.2-1.6,1.1-2.8,0.8c-0.8-0.2-1.6-0.6-2.5-0.7c-1.1-0.2-0.6-1-0.5-1.6c0.6-2,0.4-2.4-1.5-3.5
			c-0.8-0.5-1.5-0.1-2.2,0.1c-2.1,0.5-2.1,0.5-3-1.3c-0.2-0.4-0.2-0.8-0.4-1.1c-0.6-0.9-0.2-1.4,0.7-1.9c1.2-0.7,2.6-1.3,2.5-3
			c0-1-0.2-1.7-1.3-2.1c-1.9-0.8-1.9-0.4-0.8-2.4c0.2-0.4,0.5-0.7,0.6-1.1C338.8,46.2,339.8,45.6,341.3,46z"/>
		<path class="st18" d="M354.6,83.7c-0.2,3.1-3,7.1-7.1,10.4c-4.1,3.3-8.9,5.1-14.2,5.4c-5.9,0.3-11.3-1.1-14.9-6.1
			c-2.4-3.2-2.6-6.9-1.4-10.5c1.9-5.7,6.1-9.4,11.7-12c4.7-2.2,9.6-2.9,14.8-1.9C349.5,70.2,354.9,74.6,354.6,83.7z"/>
		<path class="st18" d="M351.5,60.4c-2.4-0.2-4.6-0.8-6.2-2.6c-2.3-2.5-2.3-6,0-8.9c3.4-4.2,7.9-5.9,13.3-4.8c3.7,0.8,6.3,4,5.3,8.1
			c-1,4.4-6.5,7.7-10.1,8C353,60.3,352.2,60.4,351.5,60.4z"/>
		<path class="st17" d="M340.5,70c2.4,0,6,1.1,8.9,3.7c3.3,2.9,4.3,7.5,2.8,11.4c-2.9,7.6-9,11.3-17.1,12.7
			c-4.4,0.7-8.5,0.1-12.1-2.3c-3.8-2.5-5.5-6.1-4.9-10.5c0.6-4.5,3.3-7.8,6.9-10.5C329.2,71.5,333.8,70,340.5,70z"/>
		<path class="st17" d="M360.8,51.5c0.1,1.3-0.9,2.8-2.1,3.8c-2.3,2-5.1,2.9-8.3,2c-2.8-0.8-4.1-3.4-3.1-6c1.4-3.5,7.1-6.2,11.1-4
			C359.8,48.2,360.7,49.4,360.8,51.5z"/>
		<path class="st18" d="M337.6,76.4c3.1,0.4,5.7,1.3,6.9,4.4c0.7,1.7,0.5,3.4-0.3,4.9c-2.6,4.8-8.5,7.1-13.7,5.5
			c-4.1-1.3-6-5.7-3.1-9.8C329.9,77.9,333.5,76.6,337.6,76.4z"/>
	</g>
</g>
</svg>
