<?xml version="1.0" encoding="utf-8"?>
<!-- Generator: Adobe Illustrator 22.0.1, SVG Export Plug-In . SVG Version: 6.00 Build 0)  -->
<svg version="1.1" id="Layer_1" xmlns="http://www.w3.org/2000/svg" xmlns:xlink="http://www.w3.org/1999/xlink" x="0px" y="0px"
	 viewBox="0 0 600 800" style="enable-background:new 0 0 600 800;" xml:space="preserve">
<style type="text/css">
	.st0{fill:#9CD3B5;}
	.st1{opacity:0.14;}
	.st2{fill:#7A9989;}
	.st3{fill:#FFFFFF;}
	.st4{fill:#7C7C7C;}
	.st5{fill:#C3DEE2;}
	.st6{fill:#4E5E5D;}
	.st7{fill:#9CAFA5;}
	.st8{fill:#5D6664;}
	.st9{fill:#A9AAAA;}
	.st10{fill:#D0EDEF;}
	.st11{fill:#6F8280;}
	.st12{fill:#847F61;}
	.st13{fill:#B7AE7E;}
	.st14{fill:#9DD6CB;}
	.st15{fill:#7B9B95;}
	.st16{opacity:0.8;}
	.st17{opacity:0.6;fill:#575757;}
	.st18{fill:#FEFEFE;}
</style>
<g>
	<g>
		<polygon class="st0" points="332.7,387.8 332.7,464 414.7,421.5 414.7,394 431.7,385 431.7,413.4 438.8,410 438.8,333 		"/>
		<polygon class="st1" points="253,423.3 175.5,423.3 251.3,464 332.7,464 		"/>
		<polygon class="st2" points="253.4,353.8 253.4,423.8 332.7,464 332.7,387.8 287.3,302.5 		"/>
		<polygon class="st3" points="286.9,297.5 334.9,391 443.7,333.8 395.4,252.4 		"/>
		<polygon class="st4" points="249.3,354.9 286.9,297.5 334.9,391 327.7,388 285.6,307.2 255.4,354.6 		"/>
		<g>
			<g>
				<polygon class="st5" points="287.4,414.5 266.4,403.5 266.4,375.8 287.4,386.8 				"/>
				<polygon class="st6" points="269.4,405 266.4,403.5 266.4,375.8 269.4,377.4 				"/>
				<polygon class="st7" points="287.4,414.5 287.4,410.5 269.4,401.4 266.4,403.5 				"/>
			</g>
			<polygon class="st8" points="277.8,406.2 278.2,405.9 278.2,382 277.8,381.8 277.8,393.5 			"/>
			<polygon class="st9" points="287.4,398.3 277.4,393.9 277.4,394.7 287.4,399 			"/>
			<polygon class="st9" points="278,394.2 268.8,390.1 268.8,391 278,395 			"/>
			<polygon class="st8" points="269.5,390.1 287.4,397.9 287.4,398.3 268.8,390.1 			"/>
			<polygon class="st9" points="277.1,381.4 277.8,381.8 277.8,406.2 277.1,405.8 			"/>
		</g>
		<g>
			<g>
				<polygon class="st5" points="315.5,427.9 294.5,416.9 294.5,389.2 315.5,400.2 				"/>
				<polygon class="st6" points="297.5,418.5 294.5,416.9 294.5,389.2 297.5,390.8 				"/>
				<polygon class="st7" points="315.5,427.9 315.5,424 297.5,414.8 294.5,416.9 				"/>
			</g>
			<polygon class="st8" points="305.9,419.6 306.3,419.3 306.3,395.4 305.9,395.2 305.9,407 			"/>
			<polygon class="st9" points="315.5,411.7 305.5,407.3 305.5,408.2 315.5,412.5 			"/>
			<polygon class="st9" points="306.1,407.6 296.9,403.6 296.9,404.4 306.1,408.4 			"/>
			<polygon class="st8" points="297.6,403.6 315.5,411.3 315.5,411.7 296.9,403.6 			"/>
			<polygon class="st9" points="305.2,394.8 305.9,395.2 305.9,419.6 305.2,419.2 			"/>
		</g>
		<g>
			<g>
				<polygon class="st10" points="377.4,415 398.4,404 398.4,376.3 377.4,387.3 				"/>
				<polygon class="st11" points="395.4,405.6 398.4,404 398.4,376.3 395.4,377.9 				"/>
				<polygon class="st7" points="377.4,415 377.4,411.1 395.4,401.9 398.4,404 				"/>
			</g>
			<polygon class="st8" points="386.9,406.7 386.5,406.4 386.5,382.5 386.9,382.3 386.9,394.1 			"/>
			<polygon class="st9" points="377.4,398.8 387.3,394.5 387.3,395.3 377.4,399.6 			"/>
			<polygon class="st9" points="386.7,394.7 395.9,390.7 395.9,391.5 386.7,395.5 			"/>
			<polygon class="st8" points="395.2,390.7 377.4,398.4 377.4,398.8 395.9,390.7 			"/>
			<polygon class="st9" points="387.6,381.9 386.9,382.3 386.9,406.7 387.6,406.4 			"/>
		</g>
		<g>
			<g>
				<polygon class="st10" points="349.3,428.4 370.3,417.4 370.3,389.7 349.3,400.7 				"/>
				<polygon class="st11" points="367.3,419 370.3,417.4 370.3,389.7 367.3,391.3 				"/>
				<polygon class="st7" points="349.3,428.4 349.3,424.5 367.3,415.4 370.3,417.4 				"/>
			</g>
			<polygon class="st8" points="358.8,420.1 358.5,419.8 358.5,395.9 358.8,395.7 358.8,407.5 			"/>
			<polygon class="st9" points="349.3,412.3 359.3,407.9 359.3,408.7 349.3,413 			"/>
			<polygon class="st9" points="358.7,408.1 367.8,404.1 367.8,404.9 358.7,408.9 			"/>
			<polygon class="st8" points="367.1,404.1 349.3,411.8 349.3,412.3 367.8,404.1 			"/>
			<polygon class="st9" points="359.5,395.4 358.8,395.7 358.8,420.1 359.5,419.8 			"/>
		</g>
		<polygon class="st5" points="414.7,418.9 428.7,412.1 431.7,385 414.7,394 		"/>
		<polygon class="st11" points="428.7,412.1 431.7,413.5 431.7,385 428.7,386.6 		"/>
		<ellipse class="st12" cx="416.6" cy="405" rx="1" ry="0.8"/>
		<ellipse class="st13" cx="416.9" cy="405" rx="1" ry="0.8"/>
	</g>
	<g>
		<polygon class="st14" points="461.3,459.9 461.3,536.2 543.3,493.7 543.3,466.1 560.4,457.1 560.4,485.6 567.5,482.2 567.5,405.2 
					"/>
		<polygon class="st1" points="381.7,495.5 304.1,495.5 380,536.2 461.4,536.2 		"/>
		<polygon class="st15" points="382.1,425.9 382.1,495.9 461.3,536.2 461.3,459.9 415.9,374.7 		"/>
		<polygon class="st3" points="415.6,369.7 463.6,463.2 572.3,405.9 524.1,324.6 		"/>
		<polygon class="st4" points="377.9,427.1 415.6,369.7 463.6,463.2 456.4,460.2 414.2,379.3 384.1,426.7 		"/>
		<g>
			<g>
				<polygon class="st5" points="416,486.6 395,475.6 395,447.9 416,458.9 				"/>
				<polygon class="st6" points="398,477.2 395,475.6 395,447.9 398,449.5 				"/>
				<polygon class="st7" points="416,486.6 416,482.7 398,473.6 395,475.6 				"/>
			</g>
			<polygon class="st8" points="406.5,478.3 406.8,478 406.8,454.1 406.5,453.9 406.5,465.7 			"/>
			<polygon class="st9" points="416,470.5 406.1,466.1 406.1,466.9 416,471.2 			"/>
			<polygon class="st9" points="406.7,466.4 397.5,462.3 397.5,463.1 406.7,467.1 			"/>
			<polygon class="st8" points="398.2,462.3 416,470 416,470.5 397.5,462.3 			"/>
			<polygon class="st9" points="405.8,453.6 406.5,453.9 406.5,478.3 405.8,478 			"/>
		</g>
		<g>
			<g>
				<polygon class="st5" points="444.1,500 423.1,489 423.1,461.4 444.1,472.4 				"/>
				<polygon class="st6" points="426.1,490.6 423.1,489 423.1,461.4 426.1,462.9 				"/>
				<polygon class="st7" points="444.1,500 444.1,496.1 426.1,487 423.1,489 				"/>
			</g>
			<polygon class="st8" points="434.6,491.8 434.9,491.5 434.9,467.6 434.6,467.4 434.6,479.1 			"/>
			<polygon class="st9" points="444.1,483.9 434.1,479.5 434.1,480.3 444.1,484.6 			"/>
			<polygon class="st9" points="434.7,479.8 425.6,475.7 425.6,476.5 434.7,480.6 			"/>
			<polygon class="st8" points="426.2,475.7 444.1,483.4 444.1,483.9 425.6,475.7 			"/>
			<polygon class="st9" points="433.8,467 434.6,467.4 434.6,491.8 433.8,491.4 			"/>
		</g>
		<g>
			<g>
				<polygon class="st5" points="506,487.1 527,476.1 527,448.5 506,459.5 				"/>
				<polygon class="st11" points="524,477.7 527,476.1 527,448.5 524,450.1 				"/>
				<polygon class="st7" points="506,487.1 506,483.2 524,474.1 527,476.1 				"/>
			</g>
			<polygon class="st8" points="515.6,478.9 515.2,478.6 515.2,454.7 515.6,454.5 515.6,466.2 			"/>
			<polygon class="st9" points="506,471 516,466.6 516,467.4 506,471.7 			"/>
			<polygon class="st9" points="515.4,466.9 524.6,462.8 524.6,463.6 515.4,467.7 			"/>
			<polygon class="st8" points="523.9,462.8 506,470.6 506,471 524.6,462.8 			"/>
			<polygon class="st9" points="516.3,454.1 515.6,454.5 515.6,478.9 516.3,478.5 			"/>
		</g>
		<g>
			<g>
				<polygon class="st5" points="477.9,500.5 498.9,489.5 498.9,461.9 477.9,472.9 				"/>
				<polygon class="st11" points="495.9,491.1 498.9,489.5 498.9,461.9 495.9,463.5 				"/>
				<polygon class="st7" points="477.9,500.5 477.9,496.6 495.9,487.5 498.9,489.5 				"/>
			</g>
			<polygon class="st8" points="487.5,492.3 487.1,492 487.1,468.1 487.5,467.9 487.5,479.6 			"/>
			<polygon class="st9" points="477.9,484.4 487.9,480 487.9,480.8 477.9,485.1 			"/>
			<polygon class="st9" points="487.3,480.3 496.5,476.2 496.5,477 487.3,481.1 			"/>
			<polygon class="st8" points="495.8,476.2 477.9,484 477.9,484.4 496.5,476.2 			"/>
			<polygon class="st9" points="488.2,467.5 487.5,467.9 487.5,492.3 488.2,491.9 			"/>
		</g>
		<polygon class="st5" points="543.3,491 557.3,484.2 560.4,457.1 543.3,466.1 		"/>
		<polygon class="st11" points="557.3,484.2 560.4,485.6 560.4,457.1 557.3,458.7 		"/>
		<ellipse class="st12" cx="545.3" cy="477.1" rx="1" ry="0.8"/>
		<ellipse class="st13" cx="545.6" cy="477.1" rx="1" ry="0.8"/>
	</g>
	<g>
		<polygon class="st14" points="178.2,466.6 178.2,542.9 260.2,500.4 260.2,472.9 277.3,463.9 277.3,492.3 284.4,488.9 284.4,411.9 
					"/>
		<polygon class="st1" points="98.6,502.2 21,502.2 96.9,542.9 178.3,542.9 		"/>
		<polygon class="st15" points="99,432.6 99,502.6 178.2,542.9 178.2,466.6 132.9,381.4 		"/>
		<polygon class="st3" points="132.5,376.4 180.5,469.9 289.2,412.6 241,331.3 		"/>
		<polygon class="st4" points="94.8,433.8 132.5,376.4 180.5,469.9 173.3,466.9 131.1,386.1 101,433.5 		"/>
		<g>
			<g>
				<polygon class="st5" points="132.9,493.3 111.9,482.3 111.9,454.7 132.9,465.7 				"/>
				<polygon class="st6" points="114.9,483.9 111.9,482.3 111.9,454.7 114.9,456.3 				"/>
				<polygon class="st7" points="132.9,493.3 132.9,489.4 114.9,480.3 111.9,482.3 				"/>
			</g>
			<polygon class="st8" points="123.4,485.1 123.7,484.8 123.7,460.9 123.4,460.7 123.4,472.4 			"/>
			<polygon class="st9" points="132.9,477.2 123,472.8 123,473.6 132.9,477.9 			"/>
			<polygon class="st9" points="123.6,473.1 114.4,469 114.4,469.8 123.6,473.9 			"/>
			<polygon class="st8" points="115.1,469 132.9,476.8 132.9,477.2 114.4,469 			"/>
			<polygon class="st9" points="122.7,460.3 123.4,460.7 123.4,485.1 122.7,484.7 			"/>
		</g>
		<g>
			<g>
				<polygon class="st5" points="161,506.7 140,495.7 140,468.1 161,479.1 				"/>
				<polygon class="st6" points="143,497.3 140,495.7 140,468.1 143,469.7 				"/>
				<polygon class="st7" points="161,506.7 161,502.8 143,493.7 140,495.7 				"/>
			</g>
			<polygon class="st8" points="151.5,498.5 151.8,498.2 151.8,474.3 151.5,474.1 151.5,485.8 			"/>
			<polygon class="st9" points="161,490.6 151,486.2 151,487 161,491.3 			"/>
			<polygon class="st9" points="151.6,486.5 142.5,482.4 142.5,483.2 151.6,487.3 			"/>
			<polygon class="st8" points="143.1,482.4 161,490.2 161,490.6 142.5,482.4 			"/>
			<polygon class="st9" points="150.8,473.7 151.5,474.1 151.5,498.5 150.8,498.1 			"/>
		</g>
		<g>
			<g>
				<polygon class="st5" points="222.9,493.9 243.9,482.9 243.9,455.2 222.9,466.2 				"/>
				<polygon class="st11" points="240.9,484.4 243.9,482.9 243.9,455.2 240.9,456.8 				"/>
				<polygon class="st7" points="222.9,493.9 222.9,489.9 240.9,480.8 243.9,482.9 				"/>
			</g>
			<polygon class="st8" points="232.5,485.6 232.1,485.3 232.1,461.4 232.5,461.2 232.5,472.9 			"/>
			<polygon class="st9" points="222.9,477.7 232.9,473.3 232.9,474.1 222.9,478.4 			"/>
			<polygon class="st9" points="232.3,473.6 241.5,469.5 241.5,470.4 232.3,474.4 			"/>
			<polygon class="st8" points="240.8,469.5 222.9,477.3 222.9,477.7 241.5,469.5 			"/>
			<polygon class="st9" points="233.2,460.8 232.5,461.2 232.5,485.6 233.2,485.2 			"/>
		</g>
		<g>
			<g>
				<polygon class="st5" points="194.8,507.3 215.8,496.3 215.8,468.6 194.8,479.6 				"/>
				<polygon class="st11" points="212.8,497.9 215.8,496.3 215.8,468.6 212.8,470.2 				"/>
				<polygon class="st7" points="194.8,507.3 194.8,503.4 212.8,494.2 215.8,496.3 				"/>
			</g>
			<polygon class="st8" points="204.4,499 204,498.7 204,474.8 204.4,474.6 204.4,486.3 			"/>
			<polygon class="st9" points="194.8,491.1 204.8,486.7 204.8,487.5 194.8,491.8 			"/>
			<polygon class="st9" points="204.2,487 213.4,483 213.4,483.8 204.2,487.8 			"/>
			<polygon class="st8" points="212.7,483 194.8,490.7 194.8,491.1 213.4,483 			"/>
			<polygon class="st9" points="205.1,474.2 204.4,474.6 204.4,499 205.1,498.6 			"/>
		</g>
		<polygon class="st5" points="260.2,497.8 274.2,491 277.3,463.9 260.2,472.9 		"/>
		<polygon class="st11" points="274.2,491 277.3,492.4 277.3,463.9 274.2,465.4 		"/>
		<ellipse class="st12" cx="262.2" cy="483.8" rx="1" ry="0.8"/>
		<ellipse class="st13" cx="262.5" cy="483.8" rx="1" ry="0.8"/>
	</g>
	<g class="st16">
		<path class="st17" d="M350.2,349.4c-1.3,0.1-1.9-0.5-1.9-1.6c0-0.6-0.2-1.3-0.3-1.9c-0.1-0.5-0.4-0.8-0.7-1.1
			c-0.9-0.6-2.1-0.4-3.1-0.9c-1.1-0.5-2.1-0.1-3,0.5c-0.9,0.6-1.9,1.1-2.8,1.6c-0.7,0.4-1.4,0.3-2.1-0.2c-1.3-0.8-2.4-1.8-3.6-2.8
			c-0.6-0.5-0.7-0.9-0.3-1.6c0.5-0.9,1.4-1.6,2-2.4c0.5-0.8,0.8-1.4,0.3-2.4c-0.3-0.7-0.7-1.4-1-2.1c-0.2-0.6-0.6-0.8-1.3-0.8
			c-1.1,0-2.3-0.2-3.4-0.2c-0.9,0-1.4-0.4-1.3-1.3c0.1-1.7,0.3-3.3,0.5-5c0.1-0.8,0.6-1,1.3-1.2c0.9-0.2,1.8-0.6,2.8-0.7
			c1.6-0.2,2.4-1.3,3.2-2.4c1.5-2,1.1-3.5-0.5-5.1c-0.8-0.8-0.8-1.5,0.1-2.2c1.6-1.3,3.1-2.7,4.8-3.9c0.7-0.5,1.4-0.5,2-0.1
			c0.9,0.6,2,0.7,2.8,1.3c0.5,0.3,1,0.2,1.5,0c1.4-0.6,2.8-1.2,4.2-1.8c1-0.5,1.1-1.5,1.3-2.4c0.3-2.3,1.8-3,4-3
			c1.4,0,2.7-0.2,4.1-0.3c1.1-0.1,1.8,0.3,1.8,1.3c-0.1,3,1.6,4,4.4,4.2c1,0.1,1.9,0.2,2.8-0.4c0.6-0.4,1.4-0.7,1.9-1.2
			c1.3-1,2.4-1,3.6,0.1c1,1,2.3,1.6,3.2,2.6c0.5,0.5,0.5,0.8,0.1,1.3c-0.6,0.8-1.2,1.7-1.9,2.4c-0.8,0.8-0.9,1.5-0.5,2.5
			c1.4,3.2,0.9,2.9,4.6,3.2c2.5,0.2,2.6,0.2,2.3,2.6c-0.1,1.1-0.2,2.3-0.3,3.4c-0.1,0.9-0.5,1.2-1.3,1.4c-0.9,0.3-1.7,0.6-2.6,0.7
			c-3,0.3-3.4,2.8-4.5,4.7c-0.5,0.8,0.5,1.6,1.1,2.2c1.5,1.8,1.5,1.7-0.4,3.4c-1.2,1.1-2.5,2.1-3.8,3.2c-0.6,0.5-1.3,0.7-2.1,0.3
			c-0.8-0.5-1.8-0.7-2.6-1.2c-0.5-0.3-1.1-0.4-1.7-0.1c-0.9,0.4-1.9,0.8-2.9,1.1c-1.7,0.5-2.5,1.8-2.9,3.3c-0.6,2.3-0.8,2.4-3.3,2.6
			C353.2,349,351.7,349.2,350.2,349.4z"/>
		<path class="st17" d="M360.6,289.3c2.2,0.7,3.2-1,4.4-2.1c0.5-0.5,0.4-1.2,0.2-1.9c-0.5-1.2,0.2-1.8,1.3-2.1c1-0.4,2-0.6,2.9-1.1
			c0.9-0.4,1.4-0.1,1.9,0.5c1.6,1.9,4.4,1.9,6-0.1c0.9-1.1,2-1.9,3.6-1.1c0.2,0.1,0.4,0.1,0.7,0.1c2.2,0.6,2.2,0.6,1.7,2.7
			c-0.4,1.5,1.3,3.2,2.9,2.9c0.4-0.1,0.7-0.1,1.1-0.2c2.2-0.5,2.2-0.5,3.1,1.5c0.1,0.4,0.2,0.7,0.4,1.1c0.3,0.7,0.3,1.1-0.5,1.6
			c-1.2,0.7-2.8,1.3-2.7,3.2c0,1,0.2,1.7,1.3,2.1c1.8,0.7,1.8,0.8,0.8,2.4c0,0-0.1,0.1-0.1,0.1c-0.7,2.4-2.3,3.1-4.8,2.7
			c-1.6-0.3-3.7,2.2-3.3,3.7c0.3,1.2,0,2-1.4,2.3c-0.5,0.1-0.9,0.4-1.4,0.6c-2.5,0.9-2.6,1.2-4-0.9c-0.3-0.4-0.7-0.5-1-0.5
			c-1.8,0.1-3.7,0-4.8,1.8c-0.7,1.2-1.6,1.1-2.8,0.8c-0.8-0.2-1.6-0.6-2.5-0.7c-1.1-0.2-0.6-1-0.5-1.6c0.6-2,0.4-2.4-1.5-3.5
			c-0.8-0.5-1.5-0.1-2.2,0.1c-2.1,0.5-2.1,0.5-3-1.3c-0.2-0.4-0.2-0.8-0.4-1.1c-0.6-0.9-0.2-1.4,0.7-1.9c1.2-0.7,2.6-1.3,2.5-3
			c0-1-0.2-1.7-1.3-2.1c-1.9-0.8-1.9-0.4-0.8-2.4c0.2-0.4,0.5-0.7,0.6-1.1C358.1,289.6,359.1,289,360.6,289.3z"/>
		<path class="st18" d="M373.9,327.1c-0.2,3.1-3,7.1-7.1,10.4c-4.1,3.3-8.9,5.1-14.2,5.4c-5.9,0.3-11.3-1.1-14.9-6.1
			c-2.4-3.2-2.6-6.9-1.4-10.5c1.9-5.7,6.1-9.4,11.7-12c4.7-2.2,9.6-2.9,14.8-1.9C368.8,313.6,374.3,318,373.9,327.1z"/>
		<path class="st18" d="M370.8,303.8c-2.4-0.2-4.6-0.8-6.2-2.6c-2.3-2.5-2.3-6,0-8.9c3.4-4.2,7.9-5.9,13.3-4.8
			c3.7,0.8,6.3,4,5.3,8.1c-1,4.4-6.5,7.7-10.1,8C372.3,303.7,371.6,303.7,370.8,303.8z"/>
		<path class="st17" d="M359.9,313.4c2.4,0,6,1.1,8.9,3.7c3.3,2.9,4.3,7.5,2.8,11.4c-2.9,7.6-9,11.3-17.1,12.7
			c-4.4,0.7-8.5,0.1-12.1-2.3c-3.8-2.5-5.5-6.1-4.9-10.5c0.6-4.5,3.3-7.8,6.9-10.5C348.5,314.9,353.1,313.4,359.9,313.4z"/>
		<path class="st17" d="M380.1,294.9c0.1,1.3-0.9,2.8-2.1,3.8c-2.3,2-5.1,2.9-8.3,2c-2.8-0.8-4.1-3.4-3.1-6c1.4-3.5,7.1-6.2,11.1-4
			C379.2,291.6,380,292.8,380.1,294.9z"/>
		<path class="st18" d="M357,319.7c3.1,0.4,5.7,1.3,6.9,4.4c0.7,1.7,0.5,3.4-0.3,4.9c-2.6,4.8-8.5,7.1-13.7,5.5
			c-4.1-1.3-6-5.7-3.1-9.8C349.2,321.3,352.8,320,357,319.7z"/>
	</g>
</g>
</svg>
