<?xml version="1.0" encoding="utf-8"?>
<!-- Generator: Adobe Illustrator 22.0.1, SVG Export Plug-In . SVG Version: 6.00 Build 0)  -->
<svg version="1.1" id="Layer_1" xmlns="http://www.w3.org/2000/svg" xmlns:xlink="http://www.w3.org/1999/xlink" x="0px" y="0px"
	 viewBox="0 0 309.3 250.7" style="enable-background:new 0 0 309.3 250.7;" xml:space="preserve">
<style type="text/css">
	.st0{fill:#E0D8C7;}
	.st1{opacity:0.14;}
	.st2{fill:#CEC8B2;}
	.st3{fill:#CC6456;}
	.st4{fill:#68362C;}
	.st5{fill:#D6E4E5;}
	.st6{fill:#4E5E5D;}
	.st7{fill:#9CAFA5;}
	.st8{fill:#5D6664;}
	.st9{fill:#A9AAAA;}
	.st10{fill:#787F6E;}
	.st11{fill:#726348;}
	.st12{fill:#847F61;}
	.st13{fill:#B7AE7E;}
	.st14{fill:#8C8C8C;}
	.st15{fill:#D8D5CE;}
	.st16{fill:#444444;}
	.st17{fill:#5C5A5E;}
	.st18{fill:#8C8393;}
	.st19{fill:#EDDBCC;}
	.st20{opacity:0.42;}
	.st21{fill:#4D4D4D;}
</style>
<g>
	<g>
		<polygon class="st0" points="181.3,164.7 181.3,250.1 273.1,202.5 273.1,171.7 292.2,161.6 292.2,193.4 300.1,189.6 300.1,103.4 
					"/>
		<polygon class="st1" points="92.1,204.5 5.3,204.5 90.2,250.1 181.3,250.1 		"/>
		<polygon class="st2" points="92.5,126.6 92.5,205 181.3,250.1 181.3,164.7 130.5,69.3 		"/>
		<polygon class="st3" points="130.1,63.7 183.8,168.3 305.5,104.3 251.5,13.2 		"/>
		<polygon class="st4" points="87.9,127.9 130.1,63.7 183.8,168.3 175.7,165 128.5,74.5 94.8,127.6 		"/>
		<g>
			<g>
				<polygon class="st5" points="130.6,194.6 107,182.3 107,151.3 130.6,163.6 				"/>
				<polygon class="st6" points="110.4,184.1 107,182.3 107,151.3 110.4,153.1 				"/>
				<polygon class="st7" points="130.6,194.6 130.6,190.2 110.4,180 107,182.3 				"/>
			</g>
			<polygon class="st8" points="119.9,185.3 120.3,185 120.3,158.3 119.9,158 119.9,171.2 			"/>
			<polygon class="st9" points="130.6,176.5 119.4,171.6 119.4,172.5 130.6,177.3 			"/>
			<polygon class="st9" points="120.1,171.9 109.8,167.4 109.8,168.3 120.1,172.8 			"/>
			<polygon class="st8" points="110.6,167.4 130.6,176 130.6,176.5 109.8,167.4 			"/>
			<polygon class="st9" points="119.1,157.6 119.9,158 119.9,185.3 119.1,184.9 			"/>
		</g>
		<g>
			<g>
				<polygon class="st5" points="162,209.6 138.5,197.3 138.5,166.3 162,178.6 				"/>
				<polygon class="st6" points="141.9,199.1 138.5,197.3 138.5,166.3 141.9,168.1 				"/>
				<polygon class="st7" points="162,209.6 162,205.2 141.9,195 138.5,197.3 				"/>
			</g>
			<polygon class="st8" points="151.3,200.4 151.7,200 151.7,173.3 151.3,173.1 151.3,186.2 			"/>
			<polygon class="st9" points="162,191.5 150.8,186.6 150.8,187.5 162,192.4 			"/>
			<polygon class="st9" points="151.5,186.9 141.2,182.4 141.2,183.3 151.5,187.8 			"/>
			<polygon class="st8" points="142,182.4 162,191.1 162,191.5 141.2,182.4 			"/>
			<polygon class="st9" points="150.5,172.6 151.3,173.1 151.3,200.4 150.5,200 			"/>
		</g>
		<g>
			<g>
				<polygon class="st5" points="231.3,195.2 254.8,182.9 254.8,151.9 231.3,164.2 				"/>
				<polygon class="st10" points="251.5,184.7 254.8,182.9 254.8,151.9 251.5,153.7 				"/>
				<polygon class="st7" points="231.3,195.2 231.3,190.8 251.5,180.6 254.8,182.9 				"/>
			</g>
			<polygon class="st8" points="242,185.9 241.6,185.6 241.6,158.8 242,158.6 242,171.8 			"/>
			<polygon class="st9" points="231.3,177.1 242.5,172.2 242.5,173.1 231.3,177.9 			"/>
			<polygon class="st9" points="241.8,172.5 252.1,168 252.1,168.9 241.8,173.4 			"/>
			<polygon class="st8" points="251.3,168 231.3,176.6 231.3,177.1 252.1,168 			"/>
			<polygon class="st9" points="242.8,158.2 242,158.6 242,185.9 242.8,185.5 			"/>
		</g>
		<g>
			<g>
				<polygon class="st5" points="199.9,210.2 223.4,197.9 223.4,166.9 199.9,179.2 				"/>
				<polygon class="st10" points="220,199.7 223.4,197.9 223.4,166.9 220,168.7 				"/>
				<polygon class="st7" points="199.9,210.2 199.9,205.8 220,195.6 223.4,197.9 				"/>
			</g>
			<polygon class="st8" points="210.6,200.9 210.1,200.6 210.1,173.9 210.6,173.6 210.6,186.8 			"/>
			<polygon class="st9" points="199.9,192.1 211,187.2 211,188.1 199.9,192.9 			"/>
			<polygon class="st9" points="210.4,187.5 220.6,183 220.6,183.9 210.4,188.4 			"/>
			<polygon class="st8" points="219.9,183 199.9,191.6 199.9,192.1 220.6,183 			"/>
			<polygon class="st9" points="211.4,173.2 210.6,173.6 210.6,200.9 211.4,200.5 			"/>
		</g>
		<polygon class="st11" points="273.1,199.6 288.8,192 292.2,161.6 273.1,171.7 		"/>
		<polygon class="st10" points="288.8,192 292.2,193.5 292.2,161.6 288.8,163.4 		"/>
		<ellipse class="st12" cx="275.3" cy="184" rx="1.1" ry="0.9"/>
		<ellipse class="st13" cx="275.6" cy="184" rx="1.1" ry="0.9"/>
	</g>
	<g>
		<g>
			<polygon class="st14" points="241.6,75.7 233.9,71.9 233.9,37.3 241.6,41 			"/>
			<polygon class="st15" points="241.6,75.7 254.9,69.7 254.9,35 241.6,41 			"/>
			<polygon class="st16" points="253.2,35 241.6,40 235.6,37.3 247.2,32.4 			"/>
			<polygon class="st17" points="247.2,31.7 247.2,33.3 252.9,35.6 254,34.8 			"/>
			<polygon class="st18" points="247.2,33.3 236.5,37.8 235.3,37.2 247.2,32.2 			"/>
			<path class="st19" d="M247.2,31.7l-13.3,5.6l7.7,3.8l13.3-6L247.2,31.7z M235.6,37.3l11.6-4.8l6.1,2.6L241.6,40L235.6,37.3z"/>
		</g>
		<polygon class="st1" points="233.9,71.9 226.5,71.9 233.3,75.7 241.6,75.7 		"/>
	</g>
</g>
<g class="st20">
	<path class="st21" d="M204.7,101.6c-1.4,0.8-2.8,1.6-4.3,2.4c-1.1,0.6-1.8,0.3-2.3-0.8c-1.6-4-2.8-8-3.4-12.1c-0.3-2,0.2-4,0.9-5.9
		c0.7-1.9,1.6-3.7,2.6-5.4c0.8-1.4,1.4-2.8,2.2-4.1c1.9-3.3-0.5-6.7-4.8-6.5c-1.7,0.1-3.3,0.7-4.8,1.6c-2.2,1.4-3.4,3.4-3.6,5.8
		c-0.1,0.8-0.1,1.6,0,2.4c0.1,0.9-0.4,1.5-1.4,1.8c-3,0.9-6.1,1.8-9.3,2.8c-1.3,0.4-2,0-2.2-1.2c-1.3-7.1,3.1-14.1,9.2-17.6
		c5-2.9,10.1-4.4,15.6-4c4.3,0.3,7.9,1.9,10.6,5.2c2.1,2.6,2.8,5.6,2.1,9c-0.6,2.8-1.8,5.5-3.1,8.3c-0.4,0.9-0.8,1.8-1.2,2.8
		c-0.7,1.6-0.7,3.2,0,4.9c0.7,1.8,1.4,3.6,2.2,5.4c0.6,1.3,0.3,2.1-0.9,2.8C207.4,100.1,206.1,100.8,204.7,101.6
		C204.7,101.6,204.7,101.6,204.7,101.6z"/>
	<path class="st21" d="M215.1,108.3c1.7,3.8,0.4,8.8-3.1,11.1c-3.5,2.4-7.7,0.8-9.2-3.5c-1.5-4,0.2-8.9,3.6-10.9
		C209.7,103.2,213.5,104.6,215.1,108.3z"/>
</g>
</svg>
