<?xml version="1.0" encoding="utf-8"?>
<!-- Generator: Adobe Illustrator 22.0.1, SVG Export Plug-In . SVG Version: 6.00 Build 0)  -->
<svg version="1.1" id="Layer_1" xmlns="http://www.w3.org/2000/svg" xmlns:xlink="http://www.w3.org/1999/xlink" x="0px" y="0px"
	 viewBox="0 0 436 369.7" style="enable-background:new 0 0 436 369.7;" xml:space="preserve">
<style type="text/css">
	.st0{fill:#7F7C73;}
	.st1{fill:#D8D6D0;}
	.st2{fill:#898888;}
	.st3{fill:#49473F;}
	.st4{fill:#918F83;}
	.st5{fill:#AFAE9C;}
	.st6{fill:#D9F4FF;}
	.st7{fill:#C4BCA3;}
	.st8{opacity:0.14;}
	.st9{opacity:0.3;}
	.st10{fill:#FDFEFE;}
</style>
<g>
	<g>
		<polygon class="st0" points="170.3,368.7 80,320.3 80,132.5 170.3,178.5 		"/>
		<polygon class="st1" points="170.3,368.7 429.8,231.7 429.8,41.5 170.3,178.5 		"/>
		<polygon class="st2" points="418.8,41.3 170.3,171 91.8,132.4 339.5,8.4 		"/>
		<polygon class="st3" points="339.5,3.3 339.5,14.2 412.3,44.7 423.7,40 		"/>
		<polygon class="st4" points="339.5,14.2 100.9,136.6 92.5,132.5 339.5,8.4 		"/>
		<path class="st5" d="M339.5,3.3L80,132.5l90.3,45.9l259.5-137L339.5,3.3z M92.9,132.5L339.5,8.4L418.1,41L170.3,171L92.9,132.5z"
			/>
		<g>
			<g>
				<polygon class="st6" points="109,212.7 83.2,199.8 83.2,145.2 109,158.1 				"/>
				<polygon class="st3" points="85.6,201.1 83.2,199.8 83.2,145.2 85.6,146.5 				"/>
				<polygon class="st7" points="109,212.7 109,209.5 85.6,198.1 83.2,199.8 				"/>
			</g>
			<g>
				<polygon class="st6" points="137.2,227.6 111.4,213.9 111.4,159.4 137.2,173.1 				"/>
				<polygon class="st3" points="113.9,215.2 111.4,213.9 111.4,159.4 113.9,160.6 				"/>
				<polygon class="st7" points="137.2,227.6 137.2,224.5 113.9,212.3 111.4,213.9 				"/>
			</g>
			<g>
				<polygon class="st6" points="165.5,242.6 139.7,228.9 139.7,174.3 165.5,188 				"/>
				<polygon class="st3" points="142.1,230.1 139.7,228.9 139.7,174.3 142.1,175.5 				"/>
				<polygon class="st7" points="165.5,242.6 165.5,239.4 142.1,227.2 139.7,228.9 				"/>
			</g>
		</g>
		<polygon class="st8" points="80,320.3 8.6,318.6 97.7,368.7 170.3,368.7 		"/>
		<g>
			<g>
				<polygon class="st6" points="109,270.4 83.2,257.5 83.2,203 109,215.9 				"/>
				<polygon class="st3" points="85.6,258.8 83.2,257.5 83.2,203 85.6,204.2 				"/>
				<polygon class="st7" points="109,270.4 109,267.3 85.6,255.9 83.2,257.5 				"/>
			</g>
			<g>
				<polygon class="st6" points="137.2,285.4 111.4,271.7 111.4,217.1 137.2,230.8 				"/>
				<polygon class="st3" points="113.9,272.9 111.4,271.7 111.4,217.1 113.9,218.3 				"/>
				<polygon class="st7" points="137.2,285.4 137.2,282.2 113.9,270 111.4,271.7 				"/>
			</g>
			<g>
				<polygon class="st6" points="165.5,300.3 139.7,286.6 139.7,232.1 165.5,245.8 				"/>
				<polygon class="st3" points="142.1,287.9 139.7,286.6 139.7,232.1 142.1,233.3 				"/>
				<polygon class="st7" points="165.5,300.3 165.5,297.2 142.1,285 139.7,286.6 				"/>
			</g>
		</g>
		<g>
			<g>
				<polygon class="st6" points="109,327.8 83.2,315 83.2,260.4 109,273.3 				"/>
				<polygon class="st3" points="85.6,316.2 83.2,315 83.2,260.4 85.6,261.6 				"/>
				<polygon class="st7" points="109,327.8 109,324.7 85.6,313.3 83.2,315 				"/>
			</g>
			<g>
				<polygon class="st6" points="137.2,342.8 111.4,329.1 111.4,274.6 137.2,288.3 				"/>
				<polygon class="st3" points="113.9,330.4 111.4,329.1 111.4,274.6 113.9,275.8 				"/>
				<polygon class="st7" points="137.2,342.8 137.2,339.6 113.9,327.4 111.4,329.1 				"/>
			</g>
			<g>
				<polygon class="st6" points="165.5,357.7 139.7,344 139.7,289.5 165.5,303.2 				"/>
				<polygon class="st3" points="142.1,345.3 139.7,344 139.7,289.5 142.1,290.7 				"/>
				<polygon class="st7" points="165.5,357.7 165.5,354.6 142.1,342.4 139.7,344 				"/>
			</g>
		</g>
		<g>
			<g>
				<polygon class="st6" points="231.2,211.9 257,198.2 257,143.7 231.2,157.4 				"/>
				<polygon class="st3" points="254.7,199.3 257.2,198 257.2,143.5 254.7,144.7 				"/>
				<polygon class="st7" points="231.4,211.7 231.4,208.6 254.7,196.4 257.2,198 				"/>
			</g>
			<g>
				<polygon class="st6" points="202.9,226.9 228.7,213.2 228.7,158.6 202.9,172.3 				"/>
				<polygon class="st3" points="226.5,214.2 228.9,213 228.9,158.4 226.5,159.6 				"/>
				<polygon class="st7" points="203.1,226.7 203.1,223.5 226.5,211.3 228.9,213 				"/>
			</g>
			<g>
				<polygon class="st6" points="174.7,241.8 200.5,228.1 200.5,173.6 174.7,187.3 				"/>
				<polygon class="st3" points="198.2,229.2 200.7,227.9 200.7,173.4 198.2,174.6 				"/>
				<polygon class="st7" points="174.9,241.6 174.9,238.4 198.2,226.3 200.7,227.9 				"/>
			</g>
		</g>
		<g>
			<g>
				<polygon class="st6" points="231.2,269.7 257,256 257,201.4 231.2,215.1 				"/>
				<polygon class="st3" points="254.7,257 257.2,255.8 257.2,201.2 254.7,202.4 				"/>
				<polygon class="st7" points="231.4,269.5 231.4,266.3 254.7,254.1 257.2,255.8 				"/>
			</g>
			<g>
				<polygon class="st6" points="202.9,284.6 228.7,270.9 228.7,216.4 202.9,230.1 				"/>
				<polygon class="st3" points="226.5,272 228.9,270.7 228.9,216.2 226.5,217.4 				"/>
				<polygon class="st7" points="203.1,284.4 203.1,281.3 226.5,269.1 228.9,270.7 				"/>
			</g>
			<g>
				<polygon class="st6" points="174.9,299.4 200.7,285.7 200.7,231.1 174.9,244.8 				"/>
				<polygon class="st3" points="198.2,286.9 200.7,285.7 200.7,231.1 198.2,232.3 				"/>
				<polygon class="st7" points="174.9,299.4 174.9,296.2 198.2,284 200.7,285.7 				"/>
			</g>
		</g>
		<g>
			<g>
				<polygon class="st6" points="231.4,326.9 257.2,313.2 257.2,258.7 231.4,272.4 				"/>
				<polygon class="st3" points="254.7,314.5 257.2,313.2 257.2,258.7 254.7,259.9 				"/>
				<polygon class="st7" points="231.4,326.9 231.4,323.7 254.7,311.5 257.2,313.2 				"/>
			</g>
			<g>
				<polygon class="st6" points="203.1,341.8 228.9,328.1 228.9,273.6 203.1,287.3 				"/>
				<polygon class="st3" points="226.5,329.4 228.9,328.1 228.9,273.6 226.5,274.8 				"/>
				<polygon class="st7" points="203.1,341.8 203.1,338.7 226.5,326.5 228.9,328.1 				"/>
			</g>
			<g>
				<polygon class="st6" points="174.9,356.8 200.7,343.1 200.7,288.5 174.9,302.2 				"/>
				<polygon class="st3" points="198.2,344.4 200.7,343.1 200.7,288.5 198.2,289.8 				"/>
				<polygon class="st7" points="174.9,356.8 174.9,353.6 198.2,341.4 200.7,343.1 				"/>
			</g>
		</g>
		<g>
			<g>
				<polygon class="st6" points="315.4,167.4 341.2,153.7 341.2,99.2 315.4,112.9 				"/>
				<polygon class="st3" points="339,154.8 341.4,153.5 341.4,99 339,100.2 				"/>
				<polygon class="st7" points="315.6,167.2 315.6,164.1 339,151.9 341.4,153.5 				"/>
			</g>
			<g>
				<polygon class="st6" points="287.2,182.4 313,168.7 313,114.1 287.2,127.8 				"/>
				<polygon class="st3" points="310.7,169.8 313.2,168.5 313.2,113.9 310.7,115.2 				"/>
				<polygon class="st7" points="287.4,182.2 287.4,179 310.7,166.8 313.2,168.5 				"/>
			</g>
			<g>
				<polygon class="st6" points="258.9,197.3 284.7,183.6 284.7,129.1 258.9,142.8 				"/>
				<polygon class="st3" points="282.5,184.7 284.9,183.4 284.9,128.9 282.5,130.1 				"/>
				<polygon class="st7" points="259.1,197.1 259.1,194 282.5,181.8 284.9,183.4 				"/>
			</g>
		</g>
		<g>
			<g>
				<polygon class="st6" points="315.4,225.2 341.2,211.5 341.2,157 315.4,170.7 				"/>
				<polygon class="st3" points="339,212.6 341.4,211.3 341.4,156.8 339,158 				"/>
				<polygon class="st7" points="315.6,225 315.6,221.8 339,209.6 341.4,211.3 				"/>
			</g>
			<g>
				<polygon class="st6" points="287.2,240.1 313,226.4 313,171.9 287.2,185.6 				"/>
				<polygon class="st3" points="310.7,227.5 313.2,226.2 313.2,171.7 310.7,172.9 				"/>
				<polygon class="st7" points="287.4,239.9 287.4,236.8 310.7,224.6 313.2,226.2 				"/>
			</g>
			<g>
				<polygon class="st6" points="258.9,255.1 284.7,241.4 284.7,186.8 258.9,200.5 				"/>
				<polygon class="st3" points="282.5,242.5 284.9,241.2 284.9,186.6 282.5,187.9 				"/>
				<polygon class="st7" points="259.1,254.9 259.1,251.7 282.5,239.5 284.9,241.2 				"/>
			</g>
		</g>
		<g>
			<g>
				<polygon class="st6" points="315.6,282.4 341.4,268.7 341.4,214.2 315.6,227.9 				"/>
				<polygon class="st3" points="339,270 341.4,268.7 341.4,214.2 339,215.4 				"/>
				<polygon class="st7" points="315.6,282.4 315.6,279.3 339,267.1 341.4,268.7 				"/>
			</g>
			<g>
				<polygon class="st6" points="287.4,297.4 313.2,283.7 313.2,229.1 287.4,242.8 				"/>
				<polygon class="st3" points="310.7,284.9 313.2,283.7 313.2,229.1 310.7,230.3 				"/>
				<polygon class="st7" points="287.4,297.4 287.4,294.2 310.7,282 313.2,283.7 				"/>
			</g>
			<g>
				<polygon class="st6" points="259.1,312.3 284.9,298.6 284.9,244.1 259.1,257.8 				"/>
				<polygon class="st3" points="282.5,299.9 284.9,298.6 284.9,244.1 282.5,245.3 				"/>
				<polygon class="st7" points="259.1,312.3 259.1,309.1 282.5,297 284.9,298.6 				"/>
			</g>
		</g>
		<g>
			<g>
				<polygon class="st6" points="400.2,123.2 426,109.5 426,54.9 400.2,68.6 				"/>
				<polygon class="st3" points="423.7,110.6 426.2,109.3 426.2,54.7 423.7,56 				"/>
				<polygon class="st7" points="400.4,123 400.4,119.8 423.7,107.6 426.2,109.3 				"/>
			</g>
			<g>
				<polygon class="st6" points="371.9,138.1 397.7,124.4 397.7,69.9 371.9,83.6 				"/>
				<polygon class="st3" points="395.5,125.5 397.9,124.2 397.9,69.7 395.5,70.9 				"/>
				<polygon class="st7" points="372.1,137.9 372.1,134.8 395.5,122.6 397.9,124.2 				"/>
			</g>
			<g>
				<polygon class="st6" points="343.6,153.1 369.4,139.4 369.4,84.8 343.6,98.5 				"/>
				<polygon class="st3" points="367.2,140.4 369.6,139.2 369.6,84.6 367.2,85.8 				"/>
				<polygon class="st7" points="343.8,152.9 343.8,149.7 367.2,137.5 369.6,139.2 				"/>
			</g>
		</g>
		<g>
			<g>
				<polygon class="st6" points="400.4,180.7 426.2,167 426.2,112.5 400.4,126.2 				"/>
				<polygon class="st3" points="423.7,168.3 426.2,167 426.2,112.5 423.7,113.7 				"/>
				<polygon class="st7" points="400.4,180.7 400.4,177.6 423.7,165.4 426.2,167 				"/>
			</g>
			<g>
				<polygon class="st6" points="372.1,195.7 397.9,182 397.9,127.4 372.1,141.1 				"/>
				<polygon class="st3" points="395.5,183.3 397.9,182 397.9,127.4 395.5,128.7 				"/>
				<polygon class="st7" points="372.1,195.7 372.1,192.5 395.5,180.3 397.9,182 				"/>
			</g>
			<g>
				<polygon class="st6" points="343.6,210.8 369.4,197.1 369.4,142.6 343.6,156.3 				"/>
				<polygon class="st3" points="367.2,198.2 369.6,196.9 369.6,142.4 367.2,143.6 				"/>
				<polygon class="st7" points="343.8,210.6 343.8,207.5 367.2,195.3 369.6,196.9 				"/>
			</g>
		</g>
		<g>
			<g>
				<polygon class="st6" points="400.4,238.2 426.2,224.5 426.2,169.9 400.4,183.6 				"/>
				<polygon class="st3" points="423.7,225.7 426.2,224.5 426.2,169.9 423.7,171.1 				"/>
				<polygon class="st7" points="400.4,238.2 400.4,235 423.7,222.8 426.2,224.5 				"/>
			</g>
			<g>
				<polygon class="st6" points="372.1,253.1 397.9,239.4 397.9,184.9 372.1,198.6 				"/>
				<polygon class="st3" points="395.5,240.7 397.9,239.4 397.9,184.9 395.5,186.1 				"/>
				<polygon class="st7" points="372.1,253.1 372.1,249.9 395.5,237.8 397.9,239.4 				"/>
			</g>
			<g>
				<polygon class="st6" points="343.8,268 369.6,254.3 369.6,199.8 343.8,213.5 				"/>
				<polygon class="st3" points="367.2,255.6 369.6,254.3 369.6,199.8 367.2,201 				"/>
				<polygon class="st7" points="343.8,268 343.8,264.9 367.2,252.7 369.6,254.3 				"/>
			</g>
		</g>
	</g>
	<g class="st9">
		<path class="st10" d="M306.4,80.4c-0.3,0.6-1,1.2-1.8,1.7c-16.7,9.2-33.7,18.5-51,28.1c-3,1.7-6.9,1.6-10.6-0.1
			c-8.7-4.1-17.3-8.1-25.9-12.1c-1.2-0.5-2.1-1.1-2.6-1.9c-0.7-1.5,0.4-2.6,2.3-3.7c17.3-9.1,34.2-18.1,50.8-27
			c1.6-0.9,3.5-1.3,6.1-1c1.3,0.1,2.5,0.4,3.6,0.9c8.8,4,17.7,8,26.7,12C305.9,78.1,306.4,79.2,306.4,80.4z M276.7,93.8
			c5.9-3.3,11.8-6.5,17.7-9.7c0.7-0.4,0.6-0.6-0.2-1c-9.3-4.2-18.6-8.4-27.8-12.5c-0.8-0.4-1.3-0.4-2,0
			c-11.8,6.3-23.7,12.7-35.9,19.1c-0.8,0.4-0.6,0.6,0.2,1c9.3,4.3,18.6,8.6,28,13c0.9,0.4,1.3,0.4,2,0
			C264.8,100.3,270.8,97.1,276.7,93.8z M233,102.3c1.9,0.9,4.6,0.9,6.1,0c1.5-0.8,1.2-2.2-0.6-3c-1.8-0.9-4.6-0.9-6.2,0
			C230.9,100.2,231.2,101.5,233,102.3z M285.8,73.9c-1.2-0.5-2.4-1.1-3.6-1.6c-0.4-0.2-0.8-0.3-1.3-0.1c-0.4,0.2-0.5,0.4,0,0.7
			c2.3,1.1,4.7,2.1,7,3.2c0.6,0.3,0.9,0.2,1.3,0c0.4-0.2,0.2-0.4-0.2-0.6C288.1,74.9,287,74.4,285.8,73.9z"/>
	</g>
</g>
</svg>
