<?xml version="1.0" encoding="utf-8"?>
<!-- Generator: Adobe Illustrator 22.0.1, SVG Export Plug-In . SVG Version: 6.00 Build 0)  -->
<svg version="1.1" id="Layer_1" xmlns="http://www.w3.org/2000/svg" xmlns:xlink="http://www.w3.org/1999/xlink" x="0px" y="0px"
	 viewBox="0 0 286.9 362.5" style="enable-background:new 0 0 286.9 362.5;" xml:space="preserve">
<style type="text/css">
	.st0{fill:#797B91;}
	.st1{fill:#AAAACE;}
	.st2{fill:#6E7199;}
	.st3{fill:#54475E;}
	.st4{fill:#8C8393;}
	.st5{fill:#AA9DB2;}
	.st6{fill:#CDEDFC;}
	.st7{fill:#574763;}
	.st8{opacity:0.14;enable-background:new    ;}
	.st9{opacity:0.37;}
	.st10{fill:#D3D3D3;}
</style>
<g>
	<g>
		<g>
			<polygon class="st0" points="188.9,361.5 92.6,318.8 92.6,44.1 188.9,86.8 			"/>
			<polygon class="st1" points="188.9,361.5 285.1,318.8 285.1,44.1 188.9,86.8 			"/>
			<polygon class="st2" points="273.3,44 188.9,80.3 105.2,44 188.9,15 			"/>
			<polygon class="st3" points="188.9,10.5 188.9,20.1 270.7,47.6 278.6,42.8 			"/>
			<polygon class="st4" points="188.9,20.1 111.6,47.3 102.7,43.7 188.9,13.7 			"/>
			<path class="st5" d="M188.9,10.5L92.7,44.2l96.2,42.7l96.2-42.7L188.9,10.5z M105.2,44l83.6-29l84.5,29l-84.5,36.3L105.2,44z"/>
			<g>
				<g>
					<polygon class="st6" points="122.7,119.6 104.7,111.8 104.7,63.6 122.7,71.4 					"/>
					<polygon class="st7" points="107.2,112.9 104.6,111.7 104.6,63.6 107.2,64.7 					"/>
					<polygon class="st5" points="122.6,119.6 122.6,116.8 107.2,110.3 104.6,111.7 					"/>
				</g>
				<g>
					<polygon class="st6" points="147.8,130.1 129.7,122.3 129.7,74.1 147.8,81.9 					"/>
					<polygon class="st7" points="132.2,123.4 129.7,122.2 129.7,74.1 132.2,75.2 					"/>
					<polygon class="st5" points="147.7,130.1 147.7,127.3 132.2,120.8 129.7,122.2 					"/>
				</g>
				<g>
					<polygon class="st6" points="172.8,139.7 154.7,131.9 154.7,83.7 172.8,91.6 					"/>
					<polygon class="st7" points="157.2,133 154.6,131.9 154.6,83.7 157.2,84.9 					"/>
					<polygon class="st5" points="172.7,139.7 172.7,136.9 157.2,130.4 154.6,131.9 					"/>
				</g>
			</g>
			<g>
				<g>
					<polygon class="st6" points="122.7,177.1 104.6,169.3 104.6,121.1 122.7,129 					"/>
					<polygon class="st7" points="107.2,170.4 104.6,169.3 104.6,121.1 107.2,122.3 					"/>
					<polygon class="st5" points="122.6,177.1 122.6,174.3 107.2,167.8 104.6,169.3 					"/>
				</g>
				<g>
					<polygon class="st6" points="147.8,187.6 129.7,179.8 129.7,131.6 147.8,139.5 					"/>
					<polygon class="st7" points="132.2,180.9 129.7,179.8 129.7,131.6 132.2,132.7 					"/>
					<polygon class="st5" points="147.7,187.6 147.7,184.8 132.2,178.3 129.7,179.8 					"/>
				</g>
				<g>
					<polygon class="st6" points="172.8,197.3 154.7,189.4 154.7,141.3 172.8,149.1 					"/>
					<polygon class="st7" points="157.2,190.5 154.6,189.4 154.6,141.3 157.2,142.4 					"/>
					<polygon class="st5" points="172.7,197.2 172.7,194.4 157.2,188 154.6,189.4 					"/>
				</g>
			</g>
			<g>
				<g>
					<polygon class="st6" points="122.6,291.8 104.6,283.9 104.6,235.8 122.6,243.6 					"/>
					<polygon class="st7" points="107.2,285.5 104.6,284.3 104.6,236.2 107.2,237.3 					"/>
					<polygon class="st5" points="122.6,292.2 122.6,289.4 107.2,282.9 104.6,284.3 					"/>
				</g>
				<g>
					<polygon class="st6" points="147.7,302.3 129.6,294.4 129.6,246.3 147.7,254.1 					"/>
					<polygon class="st7" points="132.2,296 129.7,294.8 129.7,246.7 132.2,247.8 					"/>
					<polygon class="st5" points="147.7,302.7 147.7,299.9 132.2,293.4 129.7,294.8 					"/>
				</g>
				<g>
					<polygon class="st6" points="172.7,311.9 154.6,304.1 154.6,255.9 172.7,263.7 					"/>
					<polygon class="st7" points="157.2,305.6 154.6,304.5 154.6,256.3 157.2,257.5 					"/>
					<polygon class="st5" points="172.7,312.3 172.7,309.5 157.2,303 154.6,304.5 					"/>
				</g>
			</g>
			<g>
				<g>
					<polygon class="st6" points="122.7,234.7 104.6,226.8 104.6,178.7 122.7,186.5 					"/>
					<polygon class="st7" points="107.2,227.9 104.6,226.8 104.6,178.7 107.2,179.8 					"/>
					<polygon class="st5" points="122.6,234.6 122.6,231.9 107.2,225.4 104.6,226.8 					"/>
				</g>
				<g>
					<polygon class="st6" points="147.7,245.2 129.7,237.3 129.7,189.2 147.7,197 					"/>
					<polygon class="st7" points="132.2,238.4 129.7,237.3 129.7,189.2 132.2,190.3 					"/>
					<polygon class="st5" points="147.7,245.1 147.7,242.3 132.2,235.9 129.7,237.3 					"/>
				</g>
				<g>
					<polygon class="st6" points="172.7,254.8 154.6,247 154.6,198.8 172.7,206.6 					"/>
					<polygon class="st7" points="157.2,248.1 154.6,246.9 154.6,198.8 157.2,199.9 					"/>
					<polygon class="st5" points="172.7,254.8 172.7,252 157.2,245.5 154.6,246.9 					"/>
				</g>
			</g>
			<g>
				<g>
					<polygon class="st6" points="255.2,121.2 273.2,113.4 273.2,65.3 255.2,73.1 					"/>
					<polygon class="st7" points="270.7,114.5 273.3,113.4 273.3,65.2 270.7,66.4 					"/>
					<polygon class="st5" points="255.3,121.2 255.3,118.4 270.7,111.9 273.3,113.4 					"/>
				</g>
				<g>
					<polygon class="st6" points="230.1,131.7 248.2,123.9 248.2,75.8 230.1,83.6 					"/>
					<polygon class="st7" points="245.7,125 248.3,123.9 248.3,75.7 245.7,76.9 					"/>
					<polygon class="st5" points="230.2,131.7 230.2,128.9 245.7,122.4 248.3,123.9 					"/>
				</g>
				<g>
					<polygon class="st6" points="205.2,141.4 223.2,133.5 223.2,85.4 205.2,93.2 					"/>
					<polygon class="st7" points="220.7,134.6 223.3,133.5 223.3,85.4 220.7,86.5 					"/>
					<polygon class="st5" points="205.2,141.3 205.2,138.6 220.7,132.1 223.3,133.5 					"/>
				</g>
			</g>
			<g>
				<g>
					<polygon class="st6" points="255.2,178.8 273.3,170.9 273.3,122.8 255.2,130.6 					"/>
					<polygon class="st7" points="270.7,172.1 273.3,170.9 273.3,122.8 270.7,123.9 					"/>
					<polygon class="st5" points="255.3,178.8 255.3,176 270.7,169.5 273.3,170.9 					"/>
				</g>
				<g>
					<polygon class="st6" points="230.1,189.3 248.2,181.4 248.2,133.3 230.1,141.1 					"/>
					<polygon class="st7" points="245.7,182.5 248.3,181.4 248.3,133.3 245.7,134.4 					"/>
					<polygon class="st5" points="230.2,189.2 230.2,186.5 245.7,180 248.3,181.4 					"/>
				</g>
				<g>
					<polygon class="st6" points="205.2,198.9 223.2,191.1 223.2,142.9 205.2,150.8 					"/>
					<polygon class="st7" points="220.7,192.2 223.3,191.1 223.3,142.9 220.7,144 					"/>
					<polygon class="st5" points="205.2,198.9 205.2,196.1 220.7,189.6 223.3,191.1 					"/>
				</g>
			</g>
			<g>
				<g>
					<polygon class="st6" points="255.3,293.4 273.3,285.6 273.3,237.4 255.3,245.3 					"/>
					<polygon class="st7" points="270.7,287.1 273.3,286 273.3,237.8 270.7,239 					"/>
					<polygon class="st5" points="255.3,293.8 255.3,291 270.7,284.5 273.3,286 					"/>
				</g>
				<g>
					<polygon class="st6" points="230.2,303.9 248.3,296.1 248.3,247.9 230.2,255.8 					"/>
					<polygon class="st7" points="245.7,297.6 248.3,296.5 248.3,248.3 245.7,249.5 					"/>
					<polygon class="st5" points="230.2,304.3 230.2,301.5 245.7,295 248.3,296.5 					"/>
				</g>
				<g>
					<polygon class="st6" points="205.2,313.5 223.3,305.7 223.3,257.6 205.2,265.4 					"/>
					<polygon class="st7" points="220.7,307.2 223.3,306.1 223.3,258 220.7,259.1 					"/>
					<polygon class="st5" points="205.2,313.9 205.2,311.2 220.7,304.7 223.3,306.1 					"/>
				</g>
			</g>
			<g>
				<g>
					<polygon class="st6" points="255.2,236.3 273.3,228.5 273.3,180.3 255.2,188.2 					"/>
					<polygon class="st7" points="270.7,229.6 273.3,228.5 273.3,180.3 270.7,181.4 					"/>
					<polygon class="st5" points="255.3,236.3 255.3,233.5 270.7,227 273.3,228.5 					"/>
				</g>
				<g>
					<polygon class="st6" points="230.2,246.8 248.2,239 248.2,190.8 230.2,198.7 					"/>
					<polygon class="st7" points="245.7,240.1 248.3,239 248.3,190.8 245.7,191.9 					"/>
					<polygon class="st5" points="230.2,246.8 230.2,244 245.7,237.5 248.3,239 					"/>
				</g>
				<g>
					<polygon class="st6" points="205.2,256.4 223.3,248.6 223.3,200.5 205.2,208.3 					"/>
					<polygon class="st7" points="220.7,249.7 223.3,248.6 223.3,200.4 220.7,201.6 					"/>
					<polygon class="st5" points="205.2,256.4 205.2,253.6 220.7,247.1 223.3,248.6 					"/>
				</g>
			</g>
		</g>
		<polygon class="st8" points="92.6,318.8 -1,318.8 88.2,361.5 188.9,361.5 		"/>
	</g>
	<g id="Layer_x0020_1" class="st9">
		<g id="_152222920">
			<path id="_152222248" class="st10" d="M179.2,44.3c-9.1,1.4,4.8,8.5,14.8,6.9c1.8,0.8,7.5,3.5,9.3,4.4c-4.2,0.7-7.8,1.1-12.7,0.3
				c-13.6-2.1-28.5-9.1-28.1-13.3c0.1-1.5,3.3-2,7.4-2.7C171.7,40.7,177.5,43.4,179.2,44.3L179.2,44.3z"/>
			<path id="_150519168" class="st10" d="M183.1,44.1c-1,0.2-2.3,0.1-2.8-0.2l-8.7-4.1c-0.6-0.3-0.2-0.6,0.8-0.8l4.6-0.7
				c1-0.2,2.3-0.1,2.8,0.2l8.7,4.1c0.6,0.3,0.2,0.6-0.8,0.8L183.1,44.1L183.1,44.1z"/>
			<path id="_226148072" class="st10" d="M206.9,55.3c-1,0.2-2.3,0.1-2.8-0.2l-8.7-4.1c-0.6-0.3-0.2-0.6,0.8-0.8l4.6-0.7
				c1-0.2,2.3-0.1,2.8,0.2l8.7,4.1c0.6,0.3,0.2,0.6-0.8,0.8L206.9,55.3L206.9,55.3z"/>
		</g>
		<path class="st10" d="M187.6,34L187.6,34L187.6,34c13.5,0,25.7,1.5,34.6,3.9c8.8,2.4,14.3,5.7,14.3,9.4l0,0l0,0l0,0l0,0
			c0,3.7-5.5,7-14.3,9.4s-21.1,3.9-34.6,3.9l0,0l0,0l0,0l0,0c-13.5,0-25.7-1.5-34.6-3.9c-8.8-2.4-14.3-5.7-14.3-9.4l0,0l0,0l0,0l0,0
			c0-3.7,5.5-7,14.3-9.4S174,34,187.6,34L187.6,34L187.6,34L187.6,34z M187.6,35.6L187.6,35.6L187.6,35.6L187.6,35.6L187.6,35.6
			c-11.9,0-22.6,1.3-30.4,3.4c-7.8,2.1-12.6,5-12.6,8.2l0,0l0,0l0,0l0,0c0,3.2,4.8,6.1,12.6,8.2c7.8,2.1,18.6,3.4,30.4,3.4l0,0l0,0
			l0,0l0,0c11.9,0,22.6-1.3,30.4-3.4c7.8-2.1,12.6-5,12.6-8.2l0,0l0,0l0,0l0,0c0-3.2-4.8-6.1-12.6-8.2
			C210.2,36.9,199.4,35.6,187.6,35.6L187.6,35.6z"/>
	</g>
</g>
</svg>
